<!DOCTYPE svg PUBLIC "-//W3C//DTD SVG 20010904//EN" "http://www.w3.org/TR/2001/REC-SVG-20010904/DTD/svg10.dtd">
<svg version="1.0" xmlns="http://www.w3.org/2000/svg" width="445px" height="239px" viewBox="0 0 4450 2390" preserveAspectRatio="xMidYMid meet">
<g id="layer101" fill="#171717" stroke="none">
 <path d="M0 1200 l0 -1190 2225 0 2225 0 0 1190 0 1190 -2225 0 -2225 0 0 -1190z"/>
 </g>
<g id="layer102" fill="#261f1f" stroke="none">
 <path d="M0 1200 l0 -1190 2225 0 2225 0 0 1190 0 1190 -2225 0 -2225 0 0 -1190z m640 959 c0 -6 20 -45 45 -85 26 -44 39 -74 32 -74 -7 0 -21 15 -30 33 -9 17 -30 56 -47 85 -25 41 -28 52 -16 52 9 0 16 -5 16 -11z m87 -6 c-4 -3 -7 0 -7 7 0 7 3 10 7 7 3 -4 3 -10 0 -14z m-200 -50 c-4 -3 -10 -3 -14 0 -3 4 0 7 7 7 7 0 10 -3 7 -7z m98 -93 c3 -5 1 -10 -4 -10 -6 0 -11 5 -11 10 0 6 2 10 4 10 3 0 8 -4 11 -10z m3485 -410 c0 -5 -2 -10 -4 -10 -3 0 -8 5 -11 10 -3 6 -1 10 4 10 6 0 11 -4 11 -10z m65 -63 c-30 -41 -55 -79 -55 -85 0 -7 -7 -12 -15 -12 -22 0 -20 6 35 80 28 37 50 73 50 79 0 6 9 11 20 11 17 0 12 -11 -35 -73z m-840 54 c-6 -5 -20 -12 -32 -16 -18 -5 -22 -3 -17 9 3 9 18 16 32 16 16 0 22 -4 17 -9z m662 -48 c-4 -3 -10 -3 -14 0 -3 4 0 7 7 7 7 0 10 -3 7 -7z m-2387 -8 c0 -2 -5 -16 -12 -30 -9 -20 -18 -25 -46 -25 -20 0 -33 3 -29 6 11 12 -18 32 -40 28 -13 -3 -23 0 -23 6 0 13 66 13 91 0 15 -8 19 -7 19 5 0 8 9 15 20 15 11 0 20 -2 20 -5z m-177 -22 c-7 -2 -21 -2 -30 0 -10 3 -4 5 12 5 17 0 24 -2 18 -5z m67 -33 c11 -7 4 -10 -25 -9 -31 0 -36 2 -20 9 26 11 28 11 45 0z m58 -51 c-7 -4 -44 -9 -83 -11 -38 -3 -56 -3 -40 -1 17 2 34 9 40 14 5 5 29 8 53 7 24 -1 38 -4 30 -9z m945 -1051 c-6 -47 -46 -138 -61 -138 -8 0 -4 16 13 50 14 27 25 65 25 85 0 22 5 35 13 35 9 0 12 -10 10 -32z m51 -123 c3 -8 1 -15 -4 -15 -6 0 -10 7 -10 15 0 8 2 15 4 15 2 0 6 -7 10 -15z"/>
 </g>
<g id="layer103" fill="#323130" stroke="none">
 <path d="M0 1200 l0 -1190 2225 0 2225 0 0 1190 0 1190 -2225 0 -2225 0 0 -1190z m640 960 c0 -5 19 -40 41 -77 23 -38 43 -71 46 -75 2 -5 -2 -8 -9 -8 -7 0 -33 35 -58 77 -56 96 -55 93 -36 93 9 0 16 -4 16 -10z m90 0 c0 -5 -2 -10 -4 -10 -3 0 -8 5 -11 10 -3 6 -1 10 4 10 6 0 11 -4 11 -10z m-200 -50 c0 -5 -5 -10 -11 -10 -5 0 -7 5 -4 10 3 6 8 10 11 10 2 0 4 -4 4 -10z m94 -95 c3 -8 1 -15 -4 -15 -6 0 -10 7 -10 15 0 8 2 15 4 15 2 0 6 -7 10 -15z m2660 -347 c8 -12 13 -25 10 -30 -6 -9 -49 -10 -81 -2 -22 6 -22 6 5 30 34 29 47 30 66 2z m55 -72 c10 -11 8 -15 -6 -20 -39 -11 -139 -26 -177 -26 l-39 0 23 25 c18 19 34 25 84 28 33 2 71 4 82 5 12 1 27 -4 33 -12z m771 -1 c0 -8 -2 -15 -4 -15 -2 0 -6 7 -10 15 -3 8 -1 15 4 15 6 0 10 -7 10 -15z m108 -3 c-7 -10 -32 -43 -55 -73 -24 -31 -43 -61 -43 -67 0 -7 -9 -12 -20 -12 -17 0 -12 11 35 73 30 41 55 79 55 85 0 7 9 12 21 12 18 0 18 -2 7 -18z m-2598 -46 c0 -2 -7 -20 -15 -40 -13 -30 -21 -36 -48 -38 -35 -1 -40 -2 -167 -16 -47 -6 -92 -10 -100 -10 -8 0 -46 -1 -85 -2 -72 -2 -244 31 -195 38 14 2 153 18 310 36 157 19 288 34 293 35 4 0 7 -1 7 -3z m2377 -3 c-4 -3 -10 -3 -14 0 -3 4 0 7 7 7 7 0 10 -3 7 -7z m207 -88 c3 -8 1 -15 -4 -15 -6 0 -10 7 -10 15 0 8 2 15 4 15 2 0 6 -7 10 -15z m-2634 -24 c0 -26 -34 -41 -93 -41 -78 0 -167 11 -167 20 0 7 137 26 213 28 26 1 47 -2 47 -7z m935 -1061 c0 -22 -3 -40 -7 -40 -3 0 -14 -20 -25 -45 -10 -25 -24 -45 -30 -45 -17 0 -17 1 12 51 14 25 25 60 25 82 0 24 5 37 13 37 9 0 13 -14 12 -40z m-165 -20 c0 -5 -5 -10 -11 -10 -5 0 -7 5 -4 10 3 6 8 10 11 10 2 0 4 -4 4 -10z m214 -95 c3 -8 1 -15 -4 -15 -6 0 -10 7 -10 15 0 8 2 15 4 15 2 0 6 -7 10 -15z"/>
 </g>
<g id="layer104" fill="#525252" stroke="none">
 <path d="M0 1200 l0 -1190 2225 0 2225 0 0 1190 0 1190 -2225 0 -2225 0 0 -1190z m558 909 l27 -2 -27 -4 c-22 -3 -28 -10 -29 -31 l-2 -27 -4 28 c-4 23 -9 27 -36 28 l-32 1 30 7 c24 5 31 12 35 36 l4 30 4 -32 c3 -28 8 -33 30 -34z m82 51 c0 -5 19 -40 41 -77 23 -38 43 -71 46 -75 2 -5 -2 -8 -9 -8 -11 0 -108 148 -108 165 0 3 7 5 15 5 8 0 15 -4 15 -10z m100 -12 c0 -12 -1 -19 -3 -17 -1 2 -9 12 -16 22 -12 14 -11 17 3 17 10 0 16 -8 16 -22z m-116 -133 c3 -8 1 -15 -4 -15 -6 0 -10 7 -10 15 0 8 2 15 4 15 2 0 6 -7 10 -15z m2660 -340 c13 -17 22 -33 20 -36 -2 -3 -41 -9 -86 -12 -46 -4 -119 -10 -163 -13 l-80 -6 46 31 c25 17 54 40 65 52 17 19 28 21 97 17 72 -3 79 -5 101 -33z m61 -85 c0 -10 -18 -19 -50 -27 -75 -19 -435 -47 -435 -34 0 9 60 40 85 45 11 2 74 9 140 15 240 23 260 23 260 1z m768 0 c3 -11 3 -20 1 -20 -2 0 -8 9 -14 20 -6 11 -7 20 -2 20 6 0 12 -9 15 -20z m76 -37 c-22 -32 -48 -70 -57 -85 -9 -16 -25 -28 -35 -28 -16 0 -13 7 14 45 28 39 30 46 18 62 -13 16 -12 17 4 4 15 -12 19 -12 32 5 8 10 17 27 20 37 4 9 15 17 26 17 17 0 14 -8 -22 -57z m-161 -4 c9 -1 4 -4 -13 -8 -16 -4 -41 -5 -55 -2 l-25 5 25 7 c14 4 31 5 38 3 8 -2 21 -5 30 -5z m-2408 -4 c0 -3 -6 -20 -14 -39 -13 -32 -14 -33 -112 -44 -55 -7 -135 -15 -179 -17 -44 -3 -97 -8 -117 -11 -39 -6 -196 21 -212 37 -6 6 -6 9 0 10 5 0 140 15 299 33 317 37 335 38 335 31z m567 -32 c-4 -3 -10 -3 -14 0 -3 4 0 7 7 7 7 0 10 -3 7 -7z m2023 -64 c0 -18 -18 -9 -23 12 -4 16 -3 18 9 8 8 -6 14 -15 14 -20z m-2642 -34 c-11 -25 -13 -25 -122 -24 -95 1 -193 12 -161 19 51 10 201 27 242 29 l53 1 -12 -25z m795 -1066 c22 -2 22 -2 0 -6 -17 -3 -23 -12 -24 -31 l-2 -27 -4 28 c-3 21 -10 27 -31 28 l-27 2 28 4 c22 4 27 10 29 36 l1 32 4 -32 c3 -25 9 -33 26 -34z m141 23 c-1 -20 -11 -53 -23 -72 -11 -19 -21 -42 -21 -50 0 -9 -9 -16 -20 -16 -11 0 -20 1 -20 2 0 2 14 25 31 53 24 38 30 58 27 85 -3 28 0 36 12 36 12 0 16 -9 14 -38z m48 -134 c-9 -9 -12 -7 -12 12 0 19 3 21 12 12 9 -9 9 -15 0 -24z"/>
 </g>
<g id="layer105" fill="#a4342e" stroke="none">
 <path d="M0 1200 l0 -1190 2225 0 2225 0 0 1190 0 1190 -2225 0 -2225 0 0 -1190z m558 909 l27 -2 -27 -4 c-24 -4 -28 -9 -29 -36 l-1 -32 -7 30 c-5 24 -12 31 -36 34 l-30 4 30 6 c24 5 31 12 35 36 l4 30 4 -32 c3 -28 8 -33 30 -34z m98 23 c12 -20 33 -58 48 -84 l28 -48 -23 0 c-12 0 -20 3 -16 6 3 3 -14 39 -39 79 -48 79 -50 85 -31 85 6 0 21 -17 33 -38z m84 16 c0 -17 -3 -19 -9 -9 -5 7 -15 17 -22 22 -10 6 -8 9 9 9 16 0 22 -6 22 -22z m-105 -140 c6 -4 2 -8 -7 -8 -10 0 -18 7 -18 17 0 9 3 12 8 7 4 -5 12 -12 17 -16z m2647 -325 c37 -37 30 -53 -22 -53 -21 0 -98 -7 -172 -14 -73 -8 -187 -17 -253 -20 -119 -6 -120 -6 -76 10 24 9 71 32 105 51 75 43 176 63 299 59 83 -2 89 -4 119 -33z m68 -88 c10 -12 8 -16 -11 -23 -52 -20 -172 -34 -574 -67 -231 -20 -426 -38 -433 -40 -7 -2 -26 4 -42 14 l-30 18 35 1 c19 1 43 6 53 11 16 8 167 27 184 23 5 -1 54 4 110 12 57 8 144 17 193 21 50 4 101 8 115 10 14 2 75 8 135 14 98 10 133 13 226 19 15 1 32 -5 39 -13z m678 -46 l27 -1 -30 -7 c-23 -5 -31 -13 -36 -36 l-7 -30 -1 33 c-1 28 -5 32 -28 33 l-28 2 28 4 c23 4 27 9 28 36 l1 32 9 -32 c8 -26 15 -33 37 -34z m92 29 c21 -44 33 -45 56 -3 11 20 26 35 37 35 20 0 18 -6 -21 -57 -13 -18 -22 -39 -19 -47 4 -10 1 -13 -8 -10 -16 6 -50 -40 -40 -56 4 -6 -6 -10 -25 -10 l-32 0 29 38 c47 59 47 60 13 102 -19 24 -26 40 -18 40 7 0 20 -15 28 -32z m-2502 -56 c-7 -15 -16 -32 -22 -39 -15 -15 -317 -48 -446 -47 -65 0 -170 22 -170 35 0 5 10 11 23 14 36 8 611 71 619 68 4 -2 2 -16 -4 -31z m569 -9 c-4 -3 -10 -3 -14 0 -3 4 0 7 7 7 7 0 10 -3 7 -7z m60 -9 c-3 -3 -12 -4 -19 -1 -8 3 -5 6 6 6 11 1 17 -2 13 -5z m-1 -29 c19 -14 19 -14 -2 -15 -12 0 -24 7 -28 15 -7 19 5 19 30 0z m1963 -24 c7 -13 6 -18 -4 -18 -7 0 -15 11 -18 23 -5 26 8 23 22 -5z m-2629 -19 c0 -23 -30 -43 -72 -48 -48 -7 -269 16 -233 24 101 22 305 38 305 24z m788 -1083 l27 -2 -27 -4 c-24 -4 -28 -9 -29 -36 l-1 -32 -7 30 c-5 24 -12 31 -36 34 l-30 4 30 6 c24 5 31 12 35 36 l4 30 4 -32 c3 -28 8 -33 30 -34z m144 44 c-5 -10 -7 -24 -5 -31 3 -8 -7 -36 -21 -63 -15 -27 -24 -53 -21 -59 4 -6 -6 -10 -24 -10 l-30 0 35 53 c28 41 34 60 32 90 -3 33 -1 37 20 37 18 0 21 -3 14 -17z m13 -83 c3 -5 4 -10 1 -10 -3 0 -8 5 -11 10 -3 6 -4 10 -1 10 3 0 8 -4 11 -10z m49 -72 c6 -4 0 -8 -14 -8 -21 0 -25 5 -26 30 l-1 30 15 -22 c9 -13 21 -26 26 -30z"/>
 </g>
<g id="layer106" fill="#685859" stroke="none">
 <path d="M0 1200 l0 -1190 2225 0 2225 0 0 1190 0 1190 -2225 0 -2225 0 0 -1190z m558 909 l27 -2 -27 -4 c-24 -4 -28 -9 -29 -36 l-1 -32 -7 30 c-5 24 -12 31 -36 34 l-30 4 30 6 c24 5 31 12 35 36 l4 30 4 -32 c3 -28 8 -33 30 -34z m98 23 c12 -20 33 -58 48 -84 l28 -48 -23 0 c-12 0 -20 3 -16 6 3 3 -14 39 -39 79 -48 79 -50 85 -31 85 6 0 21 -17 33 -38z m84 16 c0 -17 -3 -19 -9 -9 -5 7 -15 17 -22 22 -10 6 -8 9 9 9 16 0 22 -6 22 -22z m-105 -140 c6 -4 2 -8 -7 -8 -10 0 -18 7 -18 17 0 9 3 12 8 7 4 -5 12 -12 17 -16z m2654 -334 l36 -39 -59 -7 c-168 -21 -369 -38 -391 -32 -15 4 -25 2 -25 -5 0 -12 -55 -13 -105 -2 l-30 6 42 13 c23 7 70 29 105 48 77 44 177 64 302 60 l89 -2 36 -40z m101 -44 c0 -13 -11 -13 -30 0 -12 8 -11 10 8 10 12 0 22 -4 22 -10z m-45 -30 c17 -19 17 -20 -6 -28 -52 -20 -171 -33 -574 -67 -231 -20 -426 -38 -433 -40 -7 -2 -26 4 -42 14 l-30 18 30 1 c16 0 40 4 52 8 l21 6 -24 15 c-23 13 -22 14 16 8 22 -4 50 -9 63 -12 12 -3 22 0 22 5 0 6 -8 13 -17 15 -21 5 33 1 101 -8 37 -5 46 -4 41 6 -6 9 3 11 38 6 25 -4 49 -2 52 3 3 5 -12 11 -32 13 -21 2 0 3 47 1 58 -2 74 0 50 5 -24 5 -4 8 65 7 88 -1 463 29 490 39 26 9 53 3 70 -15z m683 -51 l27 -1 -30 -7 c-23 -5 -31 -13 -36 -36 l-7 -30 -1 33 c-1 28 -5 32 -28 33 l-28 2 28 4 c23 4 27 9 28 36 l1 32 9 -32 c8 -26 15 -33 37 -34z m92 29 c21 -44 33 -45 56 -3 11 20 26 35 37 35 20 0 18 -6 -21 -57 -13 -18 -22 -39 -19 -47 4 -10 1 -13 -8 -10 -16 6 -50 -40 -40 -56 4 -6 -6 -10 -25 -10 l-32 0 29 38 c47 59 47 60 13 102 -19 24 -26 40 -18 40 7 0 20 -15 28 -32z m-2509 -71 c-16 -38 -21 -42 -57 -44 -21 -2 -106 -10 -189 -19 -82 -9 -168 -17 -190 -17 -39 0 -184 28 -194 39 -9 8 22 24 49 25 14 0 151 15 305 33 154 17 283 31 287 29 4 -2 -1 -23 -11 -46z m917 46 c-10 -2 -26 -2 -35 0 -10 3 -2 5 17 5 19 0 27 -2 18 -5z m-225 -20 c-7 -2 -19 -2 -25 0 -7 3 -2 5 12 5 14 0 19 -2 13 -5z m-98 -17 c-16 -7 -34 -11 -39 -8 -12 7 21 20 49 21 15 0 12 -3 -10 -13z m-112 -3 c-7 -2 -19 -2 -25 0 -7 3 -2 5 12 5 14 0 19 -2 13 -5z m210 0 c-7 -2 -21 -2 -30 0 -10 3 -4 5 12 5 17 0 24 -2 18 -5z m-56 -9 c-3 -3 -12 -4 -19 -1 -8 3 -5 6 6 6 11 1 17 -2 13 -5z m-354 -11 c-7 -2 -19 -2 -25 0 -7 3 -2 5 12 5 14 0 19 -2 13 -5z m200 0 c-7 -2 -19 -2 -25 0 -7 3 -2 5 12 5 14 0 19 -2 13 -5z m-96 -10 c-4 -3 -10 -3 -14 0 -3 4 0 7 7 7 7 0 10 -3 7 -7z m249 -8 c19 -14 19 -14 -2 -15 -12 0 -24 7 -28 15 -7 19 5 19 30 0z m-329 -2 c-4 -3 -10 -3 -14 0 -3 4 0 7 7 7 7 0 10 -3 7 -7z m2292 -22 c7 -13 6 -18 -4 -18 -7 0 -15 11 -18 23 -5 26 8 23 22 -5z m-2629 -12 c0 -52 -65 -68 -214 -49 -134 16 -149 26 -50 34 65 5 197 18 252 25 6 0 12 -4 12 -10z m788 -1090 l27 -2 -27 -4 c-24 -4 -28 -9 -29 -36 l-1 -32 -7 30 c-5 24 -12 31 -36 34 l-30 4 30 6 c24 5 31 12 35 36 l4 30 4 -32 c3 -28 8 -33 30 -34z m144 44 c-5 -10 -7 -24 -5 -31 3 -8 -7 -36 -21 -63 -15 -27 -24 -53 -21 -59 4 -6 -6 -10 -24 -10 l-30 0 35 53 c28 41 34 60 32 90 -3 33 -1 37 20 37 18 0 21 -3 14 -17z m13 -83 c3 -5 4 -10 1 -10 -3 0 -8 5 -11 10 -3 6 -4 10 -1 10 3 0 8 -4 11 -10z m49 -72 c6 -4 0 -8 -14 -8 -21 0 -25 5 -26 30 l-1 30 15 -22 c9 -13 21 -26 26 -30z"/>
 </g>
<g id="layer107" fill="#0e3fd9" stroke="none">
 <path d="M0 1200 l0 -1190 2225 0 2225 0 0 1190 0 1190 -2225 0 -2225 0 0 -1190z m530 940 c0 -26 4 -30 28 -31 l27 -2 -27 -4 c-24 -4 -28 -9 -28 -35 0 -17 -3 -28 -7 -24 -4 4 -8 17 -8 29 0 16 -8 23 -30 28 -30 7 -30 7 -3 8 27 1 46 30 33 51 -3 5 -1 10 4 10 6 0 11 -13 11 -30z m150 -48 c55 -93 58 -102 31 -95 -12 3 -21 10 -21 15 0 6 -20 44 -45 84 -36 59 -41 74 -27 74 11 -1 34 -29 62 -78z m59 51 c0 -16 -3 -21 -6 -13 -3 8 -12 21 -21 28 -14 10 -13 12 6 12 18 0 22 -6 21 -27z m-99 -147 c0 -3 -7 -3 -15 0 -8 4 -15 13 -15 21 0 12 2 12 15 -1 8 -8 15 -17 15 -20z m2612 -287 c21 -11 67 -59 68 -70 0 -7 -26 -10 -330 -40 -113 -11 -212 -22 -220 -24 -36 -10 340 19 516 41 40 5 53 2 64 -11 12 -15 12 -19 -3 -29 -21 -16 -123 -34 -267 -46 -389 -34 -470 -41 -609 -54 -147 -14 -155 -13 -185 5 -17 10 -40 19 -51 20 -34 2 24 17 69 18 22 1 36 4 32 8 -9 9 -91 4 -122 -7 -18 -7 -24 -17 -24 -38 0 -29 -1 -29 -67 -35 -139 -14 -172 -7 -100 20 30 11 31 12 7 13 -24 2 -23 3 5 10 17 4 55 8 85 10 41 1 50 4 35 10 -18 8 -17 9 8 9 15 1 27 5 27 10 0 5 19 11 43 15 123 19 491 103 522 119 70 37 449 72 497 46z m136 -84 c-3 -3 -13 -2 -22 1 -14 5 -15 9 -4 15 13 8 36 -6 26 -16z m612 -45 c0 -26 4 -30 28 -31 l27 -2 -27 -4 c-22 -3 -28 -10 -28 -28 0 -13 -4 -27 -10 -30 -6 -4 -10 7 -10 24 0 27 -4 31 -27 32 l-28 2 28 4 c22 4 27 9 27 34 0 16 5 29 10 29 6 0 10 -13 10 -30z m115 20 c-4 -6 1 -23 11 -37 l17 -27 22 26 c13 15 25 32 27 38 2 7 12 11 21 9 16 -4 14 -9 -12 -44 -17 -22 -31 -44 -31 -49 0 -5 11 -24 25 -42 30 -39 31 -44 6 -44 -13 0 -18 5 -15 18 3 9 -2 26 -10 37 -16 20 -16 20 -36 -5 -11 -14 -18 -31 -15 -37 3 -9 -6 -13 -25 -13 l-30 0 36 50 36 50 -32 40 c-30 38 -30 40 -10 40 12 0 18 -4 15 -10z m-2491 -62 c-20 -66 -32 -78 -82 -78 -26 0 -108 -7 -182 -16 -178 -21 -211 -21 -299 0 -81 18 -89 22 -75 35 6 7 476 66 632 80 9 1 11 -6 6 -21z m491 -18 c-11 -5 -45 -8 -75 -8 -52 1 -53 1 -15 7 22 3 56 7 75 8 28 2 31 0 15 -7z m-222 -27 c-7 -2 -19 -2 -25 0 -7 3 -2 5 12 5 14 0 19 -2 13 -5z m104 -10 c-4 -3 -10 -3 -14 0 -3 4 0 7 7 7 7 0 10 -3 7 -7z m248 -7 c17 -12 17 -13 -8 -18 -21 -4 -27 -1 -27 13 0 22 10 24 35 5z m-328 -3 c-4 -3 -10 -3 -14 0 -3 4 0 7 7 7 7 0 10 -3 7 -7z m-60 -9 c-3 -3 -12 -4 -19 -1 -8 3 -5 6 6 6 11 1 17 -2 13 -5z m-277 -29 c0 -8 -9 -24 -20 -35 -24 -24 -106 -27 -223 -9 -106 16 -112 26 -21 33 65 5 197 18 252 25 6 0 12 -6 12 -14z m788 -1086 l27 -2 -27 -4 c-24 -4 -28 -9 -29 -36 l-1 -32 -7 30 c-5 24 -12 31 -36 34 l-30 4 30 6 c24 5 31 12 35 36 l4 30 4 -32 c3 -28 8 -33 30 -34z m144 27 c-4 -36 17 -86 51 -123 l20 -23 -26 0 c-19 0 -25 4 -21 14 6 15 -22 76 -34 76 -5 0 -16 -16 -26 -37 -14 -29 -15 -38 -4 -44 8 -6 -1 -9 -26 -9 -36 0 -38 1 -24 18 31 34 60 105 56 133 -4 24 -1 29 17 29 18 0 20 -5 17 -34z"/>
 <path d="M2535 1555 c-71 -7 -133 -11 -137 -8 -5 2 -16 -1 -25 -7 -13 -8 6 -9 72 -4 132 9 317 31 265 31 -25 1 -103 -5 -175 -12z"/>
 </g>
<g id="layer108" fill="#d83c31" stroke="none">
 <path d="M0 1200 l0 -1190 2225 0 2225 0 0 1190 0 1190 -2225 0 -2225 0 0 -1190z m544 1155 c27 -8 63 -15 80 -15 22 0 27 -3 17 -9 -8 -5 -11 -16 -8 -25 4 -9 2 -15 -5 -13 -6 1 -14 -7 -17 -18 -5 -18 -13 -14 -64 37 -32 32 -57 58 -55 58 1 0 25 -7 52 -15z m169 -93 c47 -22 66 -39 25 -23 -37 15 -88 42 -88 47 0 3 3 3 8 1 4 -2 28 -13 55 -25z m93 -47 c18 -13 18 -14 -4 -8 -12 3 -25 9 -28 14 -8 14 10 11 32 -6z m60 -30 c18 -13 18 -14 -4 -8 -12 3 -25 9 -28 14 -8 14 10 11 32 -6z m-336 -45 c0 -26 4 -30 28 -31 l27 -2 -27 -4 c-24 -4 -28 -9 -28 -35 0 -17 -3 -28 -7 -24 -4 4 -8 17 -8 29 0 16 -8 23 -30 28 -30 7 -30 7 -3 8 27 1 46 30 33 51 -3 5 -1 10 4 10 6 0 11 -13 11 -30z m150 -48 c55 -93 58 -102 31 -95 -12 3 -21 10 -21 15 0 6 -20 44 -45 84 -36 59 -41 74 -27 74 11 -1 34 -29 62 -78z m59 51 c0 -16 -3 -21 -6 -13 -3 8 -12 21 -21 28 -14 10 -13 12 6 12 18 0 22 -6 21 -27z m407 -97 c137 -68 260 -127 274 -131 14 -4 27 -11 30 -16 3 -4 168 -88 368 -187 l362 -180 93 20 c50 10 128 26 172 34 102 18 234 51 305 75 133 45 451 75 502 48 21 -11 67 -59 68 -70 0 -7 -26 -10 -330 -40 -113 -11 -212 -22 -220 -24 -36 -10 340 19 516 41 39 5 53 2 64 -11 9 -11 10 -19 3 -26 -17 -17 -125 -36 -268 -49 -71 -6 -200 -17 -285 -25 -85 -7 -220 -19 -300 -26 -80 -6 -151 -15 -159 -19 -10 -6 6 -19 55 -43 38 -20 65 -36 60 -37 -4 0 -40 17 -79 37 -54 29 -84 38 -119 38 -45 0 -48 2 -48 26 0 23 5 27 38 33 20 3 50 6 66 6 16 0 26 3 22 7 -9 9 -91 4 -122 -7 -18 -7 -24 -17 -24 -38 0 -29 -1 -29 -67 -35 -139 -14 -172 -7 -100 20 30 11 31 12 7 13 -24 2 -23 3 5 10 17 4 55 9 85 10 30 1 47 4 38 7 -10 2 -18 9 -18 13 0 6 -11 5 -26 0 -24 -9 -132 -15 -123 -6 3 3 87 14 124 16 16 1 -122 74 -465 247 -676 341 -760 384 -760 389 0 7 -2 8 256 -120z m-506 -50 c0 -3 -7 -3 -15 0 -8 4 -15 13 -15 21 0 12 2 12 15 -1 8 -8 15 -17 15 -20z m2748 -371 c-3 -3 -13 -2 -22 1 -14 5 -15 9 -4 15 13 8 36 -6 26 -16z m612 -45 c0 -26 4 -30 28 -31 l27 -2 -27 -4 c-22 -3 -28 -10 -28 -28 0 -13 -4 -27 -10 -30 -6 -4 -10 7 -10 24 0 27 -4 31 -27 32 l-28 2 28 4 c22 4 27 9 27 34 0 16 5 29 10 29 6 0 10 -13 10 -30z m115 20 c-4 -6 1 -23 11 -37 l17 -27 22 26 c13 15 25 32 27 38 2 7 12 11 21 9 16 -4 14 -9 -12 -44 -17 -22 -31 -44 -31 -49 0 -5 11 -24 25 -42 30 -39 31 -44 6 -44 -13 0 -18 5 -15 18 3 9 -2 26 -10 37 -16 20 -16 20 -36 -5 -11 -14 -18 -31 -15 -37 3 -9 -6 -13 -25 -13 l-30 0 36 50 36 50 -32 40 c-30 38 -30 40 -10 40 12 0 18 -4 15 -10z m-2491 -62 c-20 -66 -32 -78 -82 -78 -26 0 -108 -7 -182 -16 -178 -21 -211 -21 -299 0 -81 18 -89 22 -75 35 6 7 476 66 632 80 9 1 11 -6 6 -21z m269 -45 c-7 -2 -19 -2 -25 0 -7 3 -2 5 12 5 14 0 19 -2 13 -5z m104 -10 c-4 -3 -10 -3 -14 0 -3 4 0 7 7 7 7 0 10 -3 7 -7z m-80 -10 c-4 -3 -10 -3 -14 0 -3 4 0 7 7 7 7 0 10 -3 7 -7z m-60 -9 c-3 -3 -12 -4 -19 -1 -8 3 -5 6 6 6 11 1 17 -2 13 -5z m-277 -29 c0 -8 -9 -24 -20 -35 -24 -24 -106 -27 -223 -9 -106 16 -112 26 -21 33 65 5 197 18 252 25 6 0 12 -6 12 -14z m935 -83 c-3 -3 -11 0 -18 7 -9 10 -8 11 6 5 10 -3 15 -9 12 -12z m64 -28 c14 -12 -19 -1 -35 12 -18 14 -18 14 6 3 14 -6 27 -13 29 -15z m257 -132 c-5 -4 -246 116 -246 123 0 3 56 -23 125 -57 68 -34 123 -64 121 -66z m63 -28 c14 -12 -19 -1 -35 12 -18 14 -18 14 6 3 14 -6 27 -13 29 -15z m317 -162 c-5 -4 -306 146 -306 153 0 3 70 -30 155 -72 85 -43 153 -79 151 -81z m63 -28 c14 -12 -19 -1 -35 12 -18 14 -18 14 6 3 14 -6 27 -13 29 -15z m217 -112 c-5 -4 -206 96 -206 103 0 3 47 -19 105 -47 57 -29 103 -54 101 -56z m-1128 -513 l27 -2 -27 -4 c-24 -4 -28 -9 -29 -36 l-1 -32 -7 30 c-5 24 -12 31 -36 34 l-30 4 30 6 c24 5 31 12 35 36 l4 30 4 -32 c3 -28 8 -33 30 -34z m144 27 c-4 -36 17 -86 51 -123 l20 -23 -26 0 c-19 0 -25 4 -21 14 6 15 -22 76 -34 76 -5 0 -16 -16 -26 -37 -14 -29 -15 -38 -4 -44 8 -6 -1 -9 -26 -9 -36 0 -38 1 -24 18 31 34 60 105 56 133 -4 24 -1 29 17 29 18 0 20 -5 17 -34z"/>
 <path d="M2535 1555 c-71 -7 -133 -11 -137 -8 -5 2 -16 -1 -25 -7 -13 -8 6 -9 72 -4 132 9 317 31 265 31 -25 1 -103 -5 -175 -12z"/>
 </g>
<g id="layer109" fill="#b6504a" stroke="none">
 <path d="M0 1200 l0 -1190 2225 0 2225 0 0 1190 0 1190 -2225 0 -2225 0 0 -1190z m544 1155 c27 -8 63 -15 80 -15 22 0 27 -3 17 -9 -8 -5 -11 -16 -8 -25 4 -9 2 -15 -5 -13 -6 1 -14 -7 -17 -18 -5 -18 -13 -14 -64 37 -32 32 -57 58 -55 58 1 0 25 -7 52 -15z m169 -93 c47 -22 66 -39 25 -23 -37 15 -88 42 -88 47 0 3 3 3 8 1 4 -2 28 -13 55 -25z m93 -47 c18 -13 18 -14 -4 -8 -12 3 -25 9 -28 14 -8 14 10 11 32 -6z m60 -30 c18 -13 18 -14 -4 -8 -12 3 -25 9 -28 14 -8 14 10 11 32 -6z m-336 -45 c0 -26 4 -30 28 -31 l27 -2 -27 -4 c-24 -4 -28 -9 -28 -35 0 -17 -3 -28 -7 -24 -4 4 -8 17 -8 29 0 16 -8 23 -30 28 -30 7 -30 7 -3 8 27 1 46 30 33 51 -3 5 -1 10 4 10 6 0 11 -13 11 -30z m150 -48 c55 -93 58 -102 31 -95 -12 3 -21 10 -21 15 0 6 -20 44 -45 84 -36 59 -41 74 -27 74 11 -1 34 -29 62 -78z m59 51 c0 -16 -3 -21 -6 -13 -3 8 -12 21 -21 28 -14 10 -13 12 6 12 18 0 22 -6 21 -27z m407 -97 c137 -68 260 -127 274 -131 14 -4 27 -11 30 -16 3 -4 168 -88 368 -187 l362 -180 93 20 c50 10 128 26 172 34 102 18 234 51 305 75 132 45 445 75 502 48 13 -5 34 -26 48 -45 18 -25 30 -33 45 -29 11 3 63 7 115 9 78 4 85 3 40 -4 -46 -7 -116 -16 -154 -19 -5 -1 -3 -8 4 -16 9 -11 10 -19 3 -26 -17 -17 -125 -36 -268 -49 -71 -6 -200 -17 -285 -25 -85 -7 -220 -19 -300 -26 -80 -6 -151 -15 -159 -19 -10 -6 6 -19 55 -43 38 -20 65 -36 60 -37 -4 0 -40 17 -79 37 -54 29 -84 38 -120 38 l-49 0 4 33 c3 20 0 31 -6 29 -6 -2 -12 -17 -14 -34 -3 -30 -4 -30 -70 -37 -95 -8 -144 -7 -137 3 3 5 20 13 38 17 31 7 31 8 7 14 -14 3 -43 5 -65 3 -22 -2 -55 -3 -72 -3 -18 0 -33 -3 -33 -8 0 -4 -38 -8 -84 -8 -126 -2 -196 -13 -196 -30 0 -8 -9 -23 -20 -34 -16 -16 -33 -20 -92 -20 -40 1 -107 8 -148 16 -41 9 -109 16 -150 16 -48 0 -66 3 -50 7 21 7 16 10 -35 20 -98 21 -105 23 -105 32 0 5 6 12 13 14 17 6 631 74 635 70 2 -2 -4 -20 -13 -40 -8 -21 -13 -40 -11 -43 3 -2 56 1 118 8 62 6 147 14 188 17 41 3 77 8 80 13 4 6 72 17 125 20 16 1 -122 74 -465 247 -676 341 -760 384 -760 389 0 7 -2 8 256 -120z m-506 -50 c0 -3 -7 -3 -15 0 -8 4 -15 13 -15 21 0 12 2 12 15 -1 8 -8 15 -17 15 -20z m3670 -241 c23 -8 61 -15 84 -16 l41 0 -64 -24 c-35 -13 -68 -28 -74 -34 -19 -19 -26 -12 -20 23 3 19 1 36 -6 40 -10 7 -16 26 -7 26 2 0 23 -7 46 -15z m-52 -42 c-10 -2 -28 -2 -40 0 -13 2 -5 4 17 4 22 1 32 -1 23 -4z m-110 -10 c-16 -2 -40 -2 -55 0 -16 2 -3 4 27 4 30 0 43 -2 28 -4z m-115 -10 c-7 -2 -21 -2 -30 0 -10 3 -4 5 12 5 17 0 24 -2 18 -5z m-95 -10 c-10 -2 -26 -2 -35 0 -10 3 -2 5 17 5 19 0 27 -2 18 -5z m-100 -10 c-16 -2 -40 -2 -55 0 -16 2 -3 4 27 4 30 0 43 -2 28 -4z m-120 -10 c-10 -2 -26 -2 -35 0 -10 3 -2 5 17 5 19 0 27 -2 18 -5z m-90 -10 c-10 -2 -26 -2 -35 0 -10 3 -2 5 17 5 19 0 27 -2 18 -5z m372 -73 c0 -26 4 -30 28 -31 l27 -2 -27 -4 c-22 -3 -28 -10 -28 -28 0 -13 -4 -27 -10 -30 -6 -4 -10 7 -10 24 0 27 -4 31 -27 32 l-28 2 28 4 c22 4 27 9 27 34 0 16 5 29 10 29 6 0 10 -13 10 -30z m115 20 c-4 -6 1 -23 11 -37 l17 -27 22 26 c13 15 25 32 27 38 2 7 12 11 21 9 16 -4 14 -9 -12 -44 -17 -22 -31 -44 -31 -49 0 -5 11 -24 25 -42 30 -39 31 -44 6 -44 -13 0 -18 5 -15 18 3 9 -2 26 -10 37 -16 20 -16 20 -36 -5 -11 -14 -18 -31 -15 -37 3 -9 -6 -13 -25 -13 l-30 0 36 50 36 50 -32 40 c-30 38 -30 40 -10 40 12 0 18 -4 15 -10z m-3072 -197 c-7 -2 -19 -2 -25 0 -7 3 -2 5 12 5 14 0 19 -2 13 -5z m-90 -10 c-7 -2 -19 -2 -25 0 -7 3 -2 5 12 5 14 0 19 -2 13 -5z m-100 -10 c-13 -2 -33 -2 -45 0 -13 2 -3 4 22 4 25 0 35 -2 23 -4z m-120 -10 c-7 -2 -19 -2 -25 0 -7 3 -2 5 12 5 14 0 19 -2 13 -5z m-90 -10 c-7 -2 -21 -2 -30 0 -10 3 -4 5 12 5 17 0 24 -2 18 -5z m1872 -11 c-3 -3 -11 0 -18 7 -9 10 -8 11 6 5 10 -3 15 -9 12 -12z m-1972 1 c-13 -2 -33 -2 -45 0 -13 2 -3 4 22 4 25 0 35 -2 23 -4z m-126 -9 c-3 -3 -12 -4 -19 -1 -8 3 -5 6 6 6 11 1 17 -2 13 -5z m2162 -20 c14 -12 -19 -1 -35 12 -18 14 -18 14 6 3 14 -6 27 -13 29 -15z m-2256 9 c-7 -2 -19 -2 -25 0 -7 3 -2 5 12 5 14 0 19 -2 13 -5z m-136 -10 c-4 -3 -10 -3 -14 0 -3 4 0 7 7 7 7 0 10 -3 7 -7z m56 0 c-7 -2 -21 -2 -30 0 -10 3 -4 5 12 5 17 0 24 -2 18 -5z m-136 -9 c-3 -3 -12 -4 -19 -1 -8 3 -5 6 6 6 11 1 17 -2 13 -5z m2729 -122 c-5 -4 -246 116 -246 123 0 3 56 -23 125 -57 68 -34 123 -64 121 -66z m63 -28 c14 -12 -19 -1 -35 12 -18 14 -18 14 6 3 14 -6 27 -13 29 -15z m317 -162 c-5 -4 -306 146 -306 153 0 3 70 -30 155 -72 85 -43 153 -79 151 -81z m63 -28 c14 -12 -19 -1 -35 12 -18 14 -18 14 6 3 14 -6 27 -13 29 -15z m217 -112 c-5 -4 -206 96 -206 103 0 3 47 -19 105 -47 57 -29 103 -54 101 -56z m-1128 -513 l27 -2 -27 -4 c-24 -4 -28 -9 -29 -36 l-1 -32 -7 30 c-5 24 -12 31 -36 34 l-30 4 30 6 c24 5 31 12 35 36 l4 30 4 -32 c3 -28 8 -33 30 -34z m144 27 c-4 -36 17 -86 51 -123 l20 -23 -26 0 c-19 0 -25 4 -21 14 6 15 -22 76 -34 76 -5 0 -16 -16 -26 -37 -14 -29 -15 -38 -4 -44 8 -6 -1 -9 -26 -9 -36 0 -38 1 -24 18 31 34 60 105 56 133 -4 24 -1 29 17 29 18 0 20 -5 17 -34z"/>
 <path d="M2383 1543 c4 -3 10 -3 14 0 3 4 0 7 -7 7 -7 0 -10 -3 -7 -7z"/>
 </g>
<g id="layer110" fill="#264fdc" stroke="none">
 <path d="M0 1200 l0 -1190 2225 0 2225 0 0 1190 0 1190 -2225 0 -2225 0 0 -1190z m544 1155 c27 -8 63 -15 80 -15 22 0 27 -3 17 -9 -8 -5 -11 -16 -8 -25 4 -9 2 -15 -5 -13 -6 1 -14 -7 -17 -18 -5 -18 -13 -14 -64 37 -32 32 -57 58 -55 58 1 0 25 -7 52 -15z m169 -93 c47 -22 66 -39 25 -23 -37 15 -88 42 -88 47 0 3 3 3 8 1 4 -2 28 -13 55 -25z m93 -47 c18 -13 18 -14 -4 -8 -12 3 -25 9 -28 14 -8 14 10 11 32 -6z m60 -30 c18 -13 18 -14 -4 -8 -12 3 -25 9 -28 14 -8 14 10 11 32 -6z m-336 -45 c0 -26 4 -30 28 -31 l27 -2 -27 -4 c-24 -4 -28 -9 -28 -35 0 -17 -3 -28 -7 -24 -4 4 -8 17 -8 29 0 16 -8 23 -30 28 -30 7 -30 7 -3 8 27 1 46 30 33 51 -3 5 -1 10 4 10 6 0 11 -13 11 -30z m150 -48 c55 -93 58 -102 31 -95 -12 3 -21 10 -21 15 0 6 -20 44 -45 84 -36 59 -41 74 -27 74 11 -1 34 -29 62 -78z m59 51 c0 -16 -3 -21 -6 -13 -3 8 -12 21 -21 28 -14 10 -13 12 6 12 18 0 22 -6 21 -27z m407 -97 c137 -68 260 -127 274 -131 14 -4 27 -11 30 -16 3 -4 168 -88 368 -187 l362 -180 93 20 c50 10 128 26 172 34 102 18 234 51 305 75 133 45 451 75 502 48 12 -6 32 -25 46 -41 l25 -29 116 5 116 4 -107 -15 c-89 -14 -106 -19 -96 -30 8 -10 8 -17 1 -24 -17 -17 -125 -36 -268 -49 -71 -6 -200 -17 -285 -25 -85 -7 -220 -19 -300 -26 -80 -6 -151 -15 -159 -19 -10 -6 6 -19 55 -43 38 -20 65 -36 60 -37 -4 0 -40 17 -79 37 -54 29 -84 38 -119 38 -46 0 -48 1 -48 28 0 15 -4 27 -10 27 -5 0 -10 -13 -10 -29 0 -28 -1 -28 -67 -34 -139 -14 -172 -7 -100 20 l32 11 -35 1 c-33 1 -115 -6 -340 -30 -52 -5 -97 -15 -99 -21 -2 -6 -12 -19 -22 -29 -25 -25 -123 -25 -245 -2 -49 9 -120 16 -159 16 -45 -1 -61 1 -45 6 23 7 23 8 5 14 -11 3 -46 11 -77 17 -55 11 -73 25 -45 35 17 6 631 74 635 70 2 -2 -4 -20 -12 -40 -9 -21 -16 -38 -16 -40 0 -5 386 36 465 50 11 2 29 4 40 5 26 1 -63 49 -455 247 -676 341 -760 384 -760 389 0 7 -2 8 256 -120z m-506 -50 c0 -3 -7 -3 -15 0 -8 4 -15 13 -15 21 0 12 2 12 15 -1 8 -8 15 -17 15 -20z m3670 -241 c23 -8 61 -15 84 -16 l41 0 -64 -24 c-35 -13 -68 -28 -74 -34 -19 -19 -26 -12 -20 23 3 19 1 36 -6 40 -10 7 -16 26 -7 26 2 0 23 -7 46 -15z m-52 -42 c-10 -2 -28 -2 -40 0 -13 2 -5 4 17 4 22 1 32 -1 23 -4z m-110 -10 c-16 -2 -40 -2 -55 0 -16 2 -3 4 27 4 30 0 43 -2 28 -4z m-115 -10 c-7 -2 -21 -2 -30 0 -10 3 -4 5 12 5 17 0 24 -2 18 -5z m-95 -10 c-10 -2 -26 -2 -35 0 -10 3 -2 5 17 5 19 0 27 -2 18 -5z m-100 -10 c-16 -2 -40 -2 -55 0 -16 2 -3 4 27 4 30 0 43 -2 28 -4z m-120 -10 c-10 -2 -26 -2 -35 0 -10 3 -2 5 17 5 19 0 27 -2 18 -5z m-90 -10 c-10 -2 -26 -2 -35 0 -10 3 -2 5 17 5 19 0 27 -2 18 -5z m372 -73 c0 -26 4 -30 28 -31 l27 -2 -27 -4 c-22 -3 -28 -10 -28 -28 0 -13 -4 -27 -10 -30 -6 -4 -10 7 -10 24 0 27 -4 31 -27 32 l-28 2 28 4 c22 4 27 9 27 34 0 16 5 29 10 29 6 0 10 -13 10 -30z m115 20 c-4 -6 1 -23 11 -37 l17 -27 22 26 c13 15 25 32 27 38 2 7 12 11 21 9 16 -4 14 -9 -12 -44 -17 -22 -31 -44 -31 -49 0 -5 11 -24 25 -42 30 -39 31 -44 6 -44 -13 0 -18 5 -15 18 3 9 -2 26 -10 37 -16 20 -16 20 -36 -5 -11 -14 -18 -31 -15 -37 3 -9 -6 -13 -25 -13 l-30 0 36 50 36 50 -32 40 c-30 38 -30 40 -10 40 12 0 18 -4 15 -10z m-3072 -197 c-7 -2 -19 -2 -25 0 -7 3 -2 5 12 5 14 0 19 -2 13 -5z m-90 -10 c-7 -2 -19 -2 -25 0 -7 3 -2 5 12 5 14 0 19 -2 13 -5z m-100 -10 c-13 -2 -35 -2 -50 0 -16 2 -5 4 22 4 28 0 40 -2 28 -4z m-120 -10 c-7 -2 -19 -2 -25 0 -7 3 -2 5 12 5 14 0 19 -2 13 -5z m-90 -10 c-7 -2 -21 -2 -30 0 -10 3 -4 5 12 5 17 0 24 -2 18 -5z m1872 -11 c-3 -3 -11 0 -18 7 -9 10 -8 11 6 5 10 -3 15 -9 12 -12z m-1972 1 c-13 -2 -35 -2 -50 0 -16 2 -5 4 22 4 28 0 40 -2 28 -4z m-130 -10 c-7 -2 -19 -2 -25 0 -7 3 -2 5 12 5 14 0 19 -2 13 -5z m2166 -19 c14 -12 -19 -1 -35 12 -18 14 -18 14 6 3 14 -6 27 -13 29 -15z m-2256 9 c-7 -2 -19 -2 -25 0 -7 3 -2 5 12 5 14 0 19 -2 13 -5z m-140 -10 c-7 -2 -19 -2 -25 0 -7 3 -2 5 12 5 14 0 19 -2 13 -5z m60 0 c-7 -2 -21 -2 -30 0 -10 3 -4 5 12 5 17 0 24 -2 18 -5z m-136 -9 c-3 -3 -12 -4 -19 -1 -8 3 -5 6 6 6 11 1 17 -2 13 -5z m2729 -122 c-5 -4 -246 116 -246 123 0 3 56 -23 125 -57 68 -34 123 -64 121 -66z m63 -28 c14 -12 -19 -1 -35 12 -18 14 -18 14 6 3 14 -6 27 -13 29 -15z m317 -162 c-5 -4 -306 146 -306 153 0 3 70 -30 155 -72 85 -43 153 -79 151 -81z m63 -28 c14 -12 -19 -1 -35 12 -18 14 -18 14 6 3 14 -6 27 -13 29 -15z m217 -112 c-5 -4 -206 96 -206 103 0 3 47 -19 105 -47 57 -29 103 -54 101 -56z m-1128 -513 l27 -2 -27 -4 c-24 -4 -28 -9 -29 -36 l-1 -32 -7 30 c-5 24 -12 31 -36 34 l-30 4 30 6 c24 5 31 12 35 36 l4 30 4 -32 c3 -28 8 -33 30 -34z m144 27 c-4 -36 17 -86 51 -123 l20 -23 -26 0 c-19 0 -25 4 -21 14 6 15 -22 76 -34 76 -5 0 -16 -16 -26 -37 -14 -29 -15 -38 -4 -44 8 -6 -1 -9 -26 -9 -36 0 -38 1 -24 18 31 34 60 105 56 133 -4 24 -1 29 17 29 18 0 20 -5 17 -34z"/>
 </g>
<g id="layer111" fill="#717171" stroke="none">
 <path d="M0 1200 l0 -1190 2225 0 2225 0 0 1190 0 1190 -2225 0 -2225 0 0 -1190z m593 1153 c65 -6 83 -15 52 -27 -8 -3 -15 -9 -15 -14 0 -5 177 -95 393 -202 419 -206 887 -440 1054 -525 l103 -53 92 20 c51 10 129 26 173 34 102 18 234 51 305 75 133 45 451 75 502 48 12 -6 32 -25 46 -41 l25 -29 116 5 116 4 -107 -15 c-89 -14 -106 -19 -96 -30 8 -10 8 -17 1 -24 -17 -17 -125 -36 -268 -49 -71 -6 -200 -17 -285 -25 -85 -7 -220 -19 -300 -26 -80 -6 -151 -15 -157 -18 -7 -4 251 -138 572 -299 322 -161 585 -297 585 -302 0 -6 -275 127 -611 296 -512 256 -617 305 -645 302 -31 -4 -34 -2 -34 24 0 15 -4 28 -10 28 -5 0 -10 -13 -10 -29 0 -28 -1 -28 -67 -34 -139 -14 -172 -7 -100 20 l32 11 -35 1 c-33 1 -115 -6 -340 -30 -52 -5 -97 -15 -99 -21 -2 -6 -12 -19 -22 -29 -25 -25 -123 -25 -245 -2 -49 9 -120 16 -159 16 -45 -1 -61 1 -45 6 23 7 23 8 5 14 -11 3 -46 11 -77 17 -55 11 -73 25 -45 35 17 6 631 74 635 70 2 -2 -4 -20 -12 -40 -9 -21 -16 -38 -16 -40 0 -7 509 51 517 59 1 1 -335 172 -747 379 -638 321 -750 375 -750 357 0 -29 -12 -25 -52 18 -20 21 -49 49 -64 61 -29 22 -29 22 -4 16 14 -3 55 -8 93 -12z m-63 -213 c0 -26 4 -30 28 -31 l27 -2 -27 -4 c-24 -4 -28 -9 -28 -35 0 -17 -3 -28 -7 -24 -4 4 -8 17 -8 29 0 16 -8 23 -30 28 -30 7 -30 7 -3 8 27 1 46 30 33 51 -3 5 -1 10 4 10 6 0 11 -13 11 -30z m150 -48 c55 -93 58 -102 31 -95 -12 3 -21 10 -21 15 0 6 -20 44 -45 84 -36 59 -41 74 -27 74 11 -1 34 -29 62 -78z m59 51 c0 -16 -3 -21 -6 -13 -3 8 -12 21 -21 28 -14 10 -13 12 6 12 18 0 22 -6 21 -27z m-99 -147 c0 -3 -7 -3 -15 0 -8 4 -15 13 -15 21 0 12 2 12 15 -1 8 -8 15 -17 15 -20z m3670 -241 c23 -8 61 -15 84 -16 l41 0 -64 -24 c-35 -13 -68 -28 -74 -34 -19 -19 -26 -12 -20 23 3 19 1 36 -6 40 -10 7 -16 26 -7 26 2 0 23 -7 46 -15z m-52 -42 c-10 -2 -28 -2 -40 0 -13 2 -5 4 17 4 22 1 32 -1 23 -4z m-110 -10 c-16 -2 -40 -2 -55 0 -16 2 -3 4 27 4 30 0 43 -2 28 -4z m-115 -10 c-7 -2 -21 -2 -30 0 -10 3 -4 5 12 5 17 0 24 -2 18 -5z m-95 -10 c-10 -2 -26 -2 -35 0 -10 3 -2 5 17 5 19 0 27 -2 18 -5z m-100 -10 c-16 -2 -40 -2 -55 0 -16 2 -3 4 27 4 30 0 43 -2 28 -4z m-120 -10 c-10 -2 -26 -2 -35 0 -10 3 -2 5 17 5 19 0 27 -2 18 -5z m-90 -10 c-10 -2 -26 -2 -35 0 -10 3 -2 5 17 5 19 0 27 -2 18 -5z m372 -73 c0 -26 4 -30 28 -31 l27 -2 -27 -4 c-22 -3 -28 -10 -28 -28 0 -13 -4 -27 -10 -30 -6 -4 -10 7 -10 24 0 27 -4 31 -27 32 l-28 2 28 4 c22 4 27 9 27 34 0 16 5 29 10 29 6 0 10 -13 10 -30z m115 20 c-4 -6 1 -23 11 -37 l17 -27 22 26 c13 15 25 32 27 38 2 7 12 11 21 9 16 -4 14 -9 -12 -44 -17 -22 -31 -44 -31 -49 0 -5 11 -24 25 -42 30 -39 31 -44 6 -44 -13 0 -18 5 -15 18 3 9 -2 26 -10 37 -16 20 -16 20 -36 -5 -11 -14 -18 -31 -15 -37 3 -9 -6 -13 -25 -13 l-30 0 36 50 36 50 -32 40 c-30 38 -30 40 -10 40 12 0 18 -4 15 -10z m-3072 -197 c-7 -2 -19 -2 -25 0 -7 3 -2 5 12 5 14 0 19 -2 13 -5z m-90 -10 c-7 -2 -19 -2 -25 0 -7 3 -2 5 12 5 14 0 19 -2 13 -5z m-100 -10 c-13 -2 -35 -2 -50 0 -16 2 -5 4 22 4 28 0 40 -2 28 -4z m-120 -10 c-7 -2 -19 -2 -25 0 -7 3 -2 5 12 5 14 0 19 -2 13 -5z m-90 -10 c-7 -2 -21 -2 -30 0 -10 3 -4 5 12 5 17 0 24 -2 18 -5z m-100 -10 c-13 -2 -35 -2 -50 0 -16 2 -5 4 22 4 28 0 40 -2 28 -4z m-130 -10 c-7 -2 -19 -2 -25 0 -7 3 -2 5 12 5 14 0 19 -2 13 -5z m-90 -10 c-7 -2 -19 -2 -25 0 -7 3 -2 5 12 5 14 0 19 -2 13 -5z m-140 -10 c-7 -2 -19 -2 -25 0 -7 3 -2 5 12 5 14 0 19 -2 13 -5z m60 0 c-7 -2 -21 -2 -30 0 -10 3 -4 5 12 5 17 0 24 -2 18 -5z m-136 -9 c-3 -3 -12 -4 -19 -1 -8 3 -5 6 6 6 11 1 17 -2 13 -5z m2261 -965 l27 -2 -27 -4 c-24 -4 -28 -9 -29 -36 l-1 -32 -7 30 c-5 24 -12 31 -36 34 l-30 4 30 6 c24 5 31 12 35 36 l4 30 4 -32 c3 -28 8 -33 30 -34z m144 27 c-4 -36 17 -86 51 -123 l20 -23 -26 0 c-19 0 -25 4 -21 14 6 15 -22 76 -34 76 -5 0 -16 -16 -26 -37 -14 -29 -15 -38 -4 -44 8 -6 -1 -9 -26 -9 -36 0 -38 1 -24 18 31 34 60 105 56 133 -4 24 -1 29 17 29 18 0 20 -5 17 -34z"/>
 </g>
<g id="layer112" fill="#72bc4a" stroke="none">
 <path d="M0 1200 l0 -1190 2225 0 2225 0 0 1190 0 1190 -2225 0 -2225 0 0 -1190z m593 1153 c37 -3 67 -8 67 -11 0 -3 -8 -11 -17 -18 -10 -7 -16 -15 -13 -17 5 -5 631 -316 760 -378 41 -19 203 -100 360 -179 157 -79 291 -143 298 -143 6 0 12 -5 12 -11 0 -8 2 -8 8 0 4 6 54 16 112 23 303 35 449 53 750 93 259 34 384 22 430 -43 l22 -30 86 5 87 5 -75 -12 c-66 -11 -75 -14 -75 -34 0 -29 -6 -33 -56 -39 -24 -3 -64 -10 -88 -15 -24 -5 -168 -21 -320 -34 -365 -32 -605 -55 -608 -58 -1 -2 261 -134 582 -295 322 -161 585 -297 585 -302 0 -6 -271 125 -602 292 -535 267 -608 301 -645 299 -42 -2 -43 -1 -43 29 0 40 -18 39 -22 -2 l-3 -33 -205 -16 c-113 -10 -241 -20 -285 -23 l-80 -6 45 24 45 24 -55 -4 c-38 -2 -59 -9 -67 -21 -7 -10 -17 -24 -23 -30 -15 -18 -157 -16 -255 4 -44 9 -111 16 -150 15 -44 0 -61 2 -45 7 21 6 14 9 -40 21 -75 15 -106 28 -94 40 10 10 644 83 652 75 2 -2 -2 -21 -11 -43 l-15 -38 125 17 c69 10 128 21 132 26 6 9 45 28 109 53 17 7 32 17 32 22 0 5 -4 7 -9 4 -5 -4 -11 -2 -13 4 -1 5 -308 163 -680 350 -576 289 -678 338 -678 320 0 -29 -12 -25 -52 18 -20 21 -49 49 -64 61 -29 22 -29 22 -4 16 14 -3 55 -8 93 -12z m47 -184 c0 -6 20 -45 45 -86 25 -40 45 -78 45 -83 0 -6 -26 -10 -59 -10 -52 0 -59 2 -64 22 -8 28 0 36 16 16 14 -18 67 -30 67 -15 0 5 -20 42 -44 82 -25 40 -42 76 -39 79 11 10 33 7 33 -5z m98 -24 c2 -27 1 -28 -10 -10 -6 11 -19 26 -27 33 -14 11 -13 12 9 10 20 -2 26 -9 28 -33z m-208 -5 c0 -26 4 -30 28 -31 l27 -2 -27 -4 c-23 -4 -28 -9 -28 -34 0 -16 -4 -29 -10 -29 -5 0 -10 14 -10 30 0 26 -4 30 -27 31 l-28 2 28 4 c22 4 27 9 27 34 0 16 5 29 10 29 6 0 10 -13 10 -30z m3780 -385 c23 -8 61 -15 84 -16 l41 0 -64 -24 c-35 -13 -68 -28 -74 -34 -19 -19 -26 -12 -20 23 3 19 1 36 -6 40 -10 7 -16 26 -7 26 2 0 23 -7 46 -15z m-52 -42 c-10 -2 -28 -2 -40 0 -13 2 -5 4 17 4 22 1 32 -1 23 -4z m-110 -10 c-16 -2 -40 -2 -55 0 -16 2 -3 4 27 4 30 0 43 -2 28 -4z m-115 -10 c-7 -2 -21 -2 -30 0 -10 3 -4 5 12 5 17 0 24 -2 18 -5z m-95 -10 c-10 -2 -26 -2 -35 0 -10 3 -2 5 17 5 19 0 27 -2 18 -5z m-100 -10 c-16 -2 -40 -2 -55 0 -16 2 -3 4 27 4 30 0 43 -2 28 -4z m-120 -10 c-10 -2 -26 -2 -35 0 -10 3 -2 5 17 5 19 0 27 -2 18 -5z m-90 -10 c-10 -2 -26 -2 -35 0 -10 3 -2 5 17 5 19 0 27 -2 18 -5z m491 -49 c-7 -9 -5 -20 7 -40 l18 -26 22 27 c12 16 20 34 17 42 -4 9 5 13 32 13 l36 0 -40 -48 c-23 -27 -41 -53 -41 -58 0 -5 14 -26 31 -47 l30 -37 -24 0 c-19 0 -24 4 -21 18 2 9 -3 26 -12 37 -15 20 -15 20 -34 -5 -11 -14 -18 -31 -15 -37 3 -9 -6 -13 -26 -13 l-31 0 36 49 36 49 -34 45 -35 46 30 -1 c22 -1 27 -4 18 -14z m-119 -24 c0 -26 4 -30 28 -31 l27 -2 -27 -4 c-23 -4 -28 -9 -28 -34 0 -16 -4 -29 -10 -29 -5 0 -10 14 -10 30 0 26 -4 30 -27 31 l-28 2 28 4 c22 4 27 9 27 34 0 16 5 29 10 29 6 0 10 -13 10 -30z m-2957 -177 c-7 -2 -19 -2 -25 0 -7 3 -2 5 12 5 14 0 19 -2 13 -5z m-90 -10 c-7 -2 -19 -2 -25 0 -7 3 -2 5 12 5 14 0 19 -2 13 -5z m-100 -10 c-13 -2 -35 -2 -50 0 -16 2 -5 4 22 4 28 0 40 -2 28 -4z m-120 -10 c-7 -2 -19 -2 -25 0 -7 3 -2 5 12 5 14 0 19 -2 13 -5z m-90 -10 c-7 -2 -21 -2 -30 0 -10 3 -4 5 12 5 17 0 24 -2 18 -5z m-100 -10 c-13 -2 -35 -2 -50 0 -16 2 -5 4 22 4 28 0 40 -2 28 -4z m-130 -10 c-7 -2 -19 -2 -25 0 -7 3 -2 5 12 5 14 0 19 -2 13 -5z m-90 -10 c-7 -2 -19 -2 -25 0 -7 3 -2 5 12 5 14 0 19 -2 13 -5z m-140 -10 c-7 -2 -19 -2 -25 0 -7 3 -2 5 12 5 14 0 19 -2 13 -5z m60 0 c-7 -2 -21 -2 -30 0 -10 3 -4 5 12 5 17 0 24 -2 18 -5z m-136 -9 c-3 -3 -12 -4 -19 -1 -8 3 -5 6 6 6 11 1 17 -2 13 -5z m2233 -934 c0 -26 4 -30 28 -31 l27 -2 -27 -4 c-23 -4 -28 -9 -28 -34 0 -18 -4 -28 -10 -24 -5 3 -10 17 -10 31 0 19 -5 24 -27 25 l-28 2 28 4 c22 4 27 9 27 34 0 16 5 29 10 29 6 0 10 -13 10 -30z m172 -8 c-3 -30 3 -48 31 -90 36 -52 36 -52 12 -52 -17 0 -23 4 -19 14 6 15 -22 76 -34 76 -5 0 -16 -16 -26 -37 -14 -29 -15 -38 -4 -44 8 -6 -3 -9 -29 -9 -43 0 -43 0 -23 20 32 32 62 100 58 131 -4 24 -1 29 16 29 19 0 21 -5 18 -38z"/>
 <path d="M3328 1653 c7 -3 16 -2 19 1 4 3 -2 6 -13 5 -11 0 -14 -3 -6 -6z"/>
 </g>
<g id="layer113" fill="#78e023" stroke="none">
 <path d="M0 1200 l0 -1190 2225 0 2225 0 0 1190 0 1190 -2225 0 -2225 0 0 -1190z m593 1153 c37 -3 67 -8 67 -11 0 -3 -8 -11 -17 -18 -10 -7 -16 -15 -13 -17 5 -5 631 -316 760 -378 41 -19 203 -100 360 -179 157 -79 291 -143 298 -143 6 0 12 -5 12 -11 0 -8 2 -8 8 0 4 6 54 16 112 23 303 35 449 53 750 93 259 34 384 22 430 -43 l22 -30 86 5 87 5 -75 -12 c-66 -11 -75 -14 -75 -34 0 -29 -6 -33 -56 -39 -24 -3 -64 -10 -88 -15 -24 -5 -168 -21 -320 -34 -365 -32 -605 -55 -608 -58 -1 -2 261 -134 582 -295 322 -161 585 -297 585 -302 0 -6 -273 126 -606 293 -591 296 -607 303 -650 297 -42 -6 -45 -5 -43 14 3 40 -4 51 -10 16 l-6 -35 -205 -16 c-113 -10 -241 -20 -285 -23 l-80 -6 45 24 45 24 -55 -4 c-38 -2 -59 -9 -67 -21 -7 -10 -17 -24 -23 -30 -15 -18 -157 -16 -255 4 -44 9 -111 16 -150 15 -44 0 -61 2 -45 7 21 6 14 9 -40 21 -75 15 -106 28 -94 40 10 10 644 83 652 75 2 -2 -2 -21 -11 -43 l-15 -38 125 17 c69 10 128 21 132 26 6 9 45 28 109 53 17 7 32 17 32 22 0 5 -4 7 -9 4 -5 -4 -11 -2 -13 4 -1 5 -308 163 -680 350 -576 289 -678 338 -678 320 0 -29 -12 -25 -52 18 -20 21 -49 49 -64 61 -29 22 -29 22 -4 16 14 -3 55 -8 93 -12z m47 -184 c0 -6 20 -45 45 -86 25 -40 45 -78 45 -83 0 -6 -26 -10 -59 -10 -52 0 -59 2 -64 22 -8 28 0 36 16 16 14 -18 67 -30 67 -15 0 5 -20 42 -44 82 -25 40 -42 76 -39 79 11 10 33 7 33 -5z m98 -24 c2 -27 1 -28 -10 -10 -6 11 -19 26 -27 33 -14 11 -13 12 9 10 20 -2 26 -9 28 -33z m-208 -5 c0 -26 4 -30 28 -31 l27 -2 -27 -4 c-23 -4 -28 -9 -28 -34 0 -16 -4 -29 -10 -29 -5 0 -10 14 -10 30 0 26 -4 30 -27 31 l-28 2 28 4 c22 4 27 9 27 34 0 16 5 29 10 29 6 0 10 -13 10 -30z m3780 -385 c23 -8 61 -15 84 -16 l41 0 -64 -24 c-35 -13 -68 -28 -74 -34 -19 -19 -26 -12 -20 23 3 19 1 36 -6 40 -10 7 -16 26 -7 26 2 0 23 -7 46 -15z m-52 -42 c-10 -2 -28 -2 -40 0 -13 2 -5 4 17 4 22 1 32 -1 23 -4z m-110 -10 c-16 -2 -40 -2 -55 0 -16 2 -3 4 27 4 30 0 43 -2 28 -4z m-115 -10 c-7 -2 -21 -2 -30 0 -10 3 -4 5 12 5 17 0 24 -2 18 -5z m-95 -10 c-10 -2 -26 -2 -35 0 -10 3 -2 5 17 5 19 0 27 -2 18 -5z m-100 -10 c-16 -2 -40 -2 -55 0 -16 2 -3 4 27 4 30 0 43 -2 28 -4z m-120 -10 c-10 -2 -26 -2 -35 0 -10 3 -2 5 17 5 19 0 27 -2 18 -5z m-90 -10 c-10 -2 -26 -2 -35 0 -10 3 -2 5 17 5 19 0 27 -2 18 -5z m491 -49 c-7 -9 -5 -20 7 -40 l18 -26 22 27 c12 16 20 34 17 42 -4 9 5 13 32 13 l36 0 -40 -48 c-23 -27 -41 -53 -41 -58 0 -5 14 -26 31 -47 l30 -37 -24 0 c-19 0 -24 4 -21 18 2 9 -3 26 -12 37 -15 20 -15 20 -34 -5 -11 -14 -18 -31 -15 -37 3 -9 -6 -13 -26 -13 l-31 0 36 49 36 49 -34 45 -35 46 30 -1 c22 -1 27 -4 18 -14z m-119 -24 c0 -26 4 -30 28 -31 l27 -2 -27 -4 c-23 -4 -28 -9 -28 -34 0 -16 -4 -29 -10 -29 -5 0 -10 14 -10 30 0 26 -4 30 -27 31 l-28 2 28 4 c22 4 27 9 27 34 0 16 5 29 10 29 6 0 10 -13 10 -30z m-2957 -177 c-7 -2 -19 -2 -25 0 -7 3 -2 5 12 5 14 0 19 -2 13 -5z m-90 -10 c-7 -2 -19 -2 -25 0 -7 3 -2 5 12 5 14 0 19 -2 13 -5z m-100 -10 c-13 -2 -35 -2 -50 0 -16 2 -5 4 22 4 28 0 40 -2 28 -4z m-120 -10 c-7 -2 -19 -2 -25 0 -7 3 -2 5 12 5 14 0 19 -2 13 -5z m-90 -10 c-7 -2 -21 -2 -30 0 -10 3 -4 5 12 5 17 0 24 -2 18 -5z m-100 -10 c-13 -2 -35 -2 -50 0 -16 2 -5 4 22 4 28 0 40 -2 28 -4z m-130 -10 c-7 -2 -19 -2 -25 0 -7 3 -2 5 12 5 14 0 19 -2 13 -5z m-90 -10 c-7 -2 -19 -2 -25 0 -7 3 -2 5 12 5 14 0 19 -2 13 -5z m-140 -10 c-7 -2 -19 -2 -25 0 -7 3 -2 5 12 5 14 0 19 -2 13 -5z m60 0 c-7 -2 -21 -2 -30 0 -10 3 -4 5 12 5 17 0 24 -2 18 -5z m-136 -9 c-3 -3 -12 -4 -19 -1 -8 3 -5 6 6 6 11 1 17 -2 13 -5z m2233 -934 c0 -26 4 -30 28 -31 l27 -2 -27 -4 c-23 -4 -28 -9 -28 -34 0 -18 -4 -28 -10 -24 -5 3 -10 17 -10 31 0 19 -5 24 -27 25 l-28 2 28 4 c22 4 27 9 27 34 0 16 5 29 10 29 6 0 10 -13 10 -30z m172 -8 c-3 -30 3 -48 31 -90 36 -52 36 -52 12 -52 -17 0 -23 4 -19 14 6 15 -22 76 -34 76 -5 0 -16 -16 -26 -37 -14 -29 -15 -38 -4 -44 8 -6 -3 -9 -29 -9 -43 0 -43 0 -23 20 32 32 62 100 58 131 -4 24 -1 29 16 29 19 0 21 -5 18 -38z m-305 -329 c-4 -3 -10 -3 -14 0 -3 4 0 7 7 7 7 0 10 -3 7 -7z"/>
 <path d="M3328 1653 c7 -3 16 -2 19 1 4 3 -2 6 -13 5 -11 0 -14 -3 -6 -6z"/>
 </g>
<g id="layer114" fill="#5667c4" stroke="none">
 <path d="M0 1200 l0 -1190 2225 0 2225 0 0 1190 0 1190 -2225 0 -2225 0 0 -1190z m593 1153 c37 -3 67 -8 67 -11 0 -3 -8 -11 -17 -18 -10 -7 -16 -15 -13 -17 5 -5 631 -316 760 -378 41 -19 203 -100 360 -179 157 -79 291 -143 298 -143 6 0 12 -5 12 -11 0 -8 2 -8 8 0 4 6 54 16 112 23 303 35 449 53 750 93 259 34 384 22 430 -43 l22 -30 86 5 87 5 -75 -12 c-66 -11 -75 -14 -75 -34 0 -29 -6 -33 -56 -39 -24 -3 -64 -10 -88 -15 -24 -5 -168 -21 -320 -34 -365 -32 -605 -55 -608 -58 -1 -2 261 -134 582 -295 322 -161 585 -297 585 -302 0 -6 -272 126 -606 293 -570 286 -608 303 -647 298 l-42 -6 -3 -620 c-1 -341 0 -626 3 -633 3 -10 10 -10 25 -2 24 13 24 16 0 -48 -11 -29 -21 -64 -22 -78 -3 -28 -18 -33 -18 -6 0 11 -9 45 -20 77 -11 32 -20 60 -20 62 0 2 9 -1 20 -7 20 -11 20 -8 20 623 l0 633 -32 -3 c-95 -9 -519 -43 -530 -43 -7 1 7 12 32 24 l45 24 -55 -4 c-38 -2 -59 -9 -67 -21 -7 -10 -17 -24 -23 -30 -15 -18 -157 -16 -255 4 -44 9 -111 16 -150 15 -44 0 -61 2 -45 7 21 6 14 9 -40 21 -75 15 -106 28 -94 40 10 10 644 83 652 75 2 -2 -2 -21 -11 -43 l-15 -38 125 17 c69 10 128 21 132 26 6 9 45 28 109 53 17 7 32 17 32 22 0 5 -4 7 -9 4 -5 -4 -11 -2 -13 4 -1 5 -308 163 -680 350 -576 289 -678 338 -678 320 0 -29 -12 -25 -52 18 -20 21 -49 49 -64 61 -29 22 -29 22 -4 16 14 -3 55 -8 93 -12z m47 -184 c0 -6 20 -45 45 -86 25 -40 45 -78 45 -83 0 -6 -26 -10 -59 -10 -52 0 -59 2 -64 22 -8 28 0 36 16 16 14 -18 67 -30 67 -15 0 5 -20 42 -44 82 -25 40 -42 76 -39 79 11 10 33 7 33 -5z m98 -24 c2 -27 1 -28 -10 -10 -6 11 -19 26 -27 33 -14 11 -13 12 9 10 20 -2 26 -9 28 -33z m-208 -5 c0 -26 4 -30 28 -31 l27 -2 -27 -4 c-23 -4 -28 -9 -28 -34 0 -16 -4 -29 -10 -29 -5 0 -10 14 -10 30 0 26 -4 30 -27 31 l-28 2 28 4 c22 4 27 9 27 34 0 16 5 29 10 29 6 0 10 -13 10 -30z m2310 -139 c0 -32 -4 -34 -113 -46 l-58 -7 3 29 c3 26 8 29 63 39 99 19 105 18 105 -15z m1470 -246 c23 -8 61 -15 84 -16 l41 0 -64 -24 c-35 -13 -68 -28 -74 -34 -19 -19 -26 -12 -20 23 3 19 1 36 -6 40 -10 7 -16 26 -7 26 2 0 23 -7 46 -15z m-52 -42 c-10 -2 -28 -2 -40 0 -13 2 -5 4 17 4 22 1 32 -1 23 -4z m-110 -10 c-16 -2 -40 -2 -55 0 -16 2 -3 4 27 4 30 0 43 -2 28 -4z m-115 -10 c-7 -2 -21 -2 -30 0 -10 3 -4 5 12 5 17 0 24 -2 18 -5z m-95 -10 c-10 -2 -26 -2 -35 0 -10 3 -2 5 17 5 19 0 27 -2 18 -5z m-100 -10 c-16 -2 -40 -2 -55 0 -16 2 -3 4 27 4 30 0 43 -2 28 -4z m-120 -10 c-10 -2 -26 -2 -35 0 -10 3 -2 5 17 5 19 0 27 -2 18 -5z m-90 -10 c-10 -2 -26 -2 -35 0 -10 3 -2 5 17 5 19 0 27 -2 18 -5z m491 -49 c-7 -9 -5 -20 7 -40 l18 -26 22 27 c12 16 20 34 17 42 -4 9 5 13 32 13 l36 0 -40 -48 c-23 -27 -41 -53 -41 -58 0 -5 14 -26 31 -47 l30 -37 -24 0 c-19 0 -24 4 -21 18 2 9 -3 26 -12 37 -15 20 -15 20 -34 -5 -11 -14 -18 -31 -15 -37 3 -9 -6 -13 -26 -13 l-31 0 36 49 36 49 -34 45 -35 46 30 -1 c22 -1 27 -4 18 -14z m-119 -24 c0 -26 4 -30 28 -31 l27 -2 -27 -4 c-23 -4 -28 -9 -28 -34 0 -16 -4 -29 -10 -29 -5 0 -10 14 -10 30 0 26 -4 30 -27 31 l-28 2 28 4 c22 4 27 9 27 34 0 16 5 29 10 29 6 0 10 -13 10 -30z m-2957 -177 c-7 -2 -19 -2 -25 0 -7 3 -2 5 12 5 14 0 19 -2 13 -5z m-90 -10 c-7 -2 -19 -2 -25 0 -7 3 -2 5 12 5 14 0 19 -2 13 -5z m-100 -10 c-13 -2 -35 -2 -50 0 -16 2 -5 4 22 4 28 0 40 -2 28 -4z m-120 -10 c-7 -2 -19 -2 -25 0 -7 3 -2 5 12 5 14 0 19 -2 13 -5z m-90 -10 c-7 -2 -21 -2 -30 0 -10 3 -4 5 12 5 17 0 24 -2 18 -5z m-100 -10 c-13 -2 -35 -2 -50 0 -16 2 -5 4 22 4 28 0 40 -2 28 -4z m-130 -10 c-7 -2 -19 -2 -25 0 -7 3 -2 5 12 5 14 0 19 -2 13 -5z m-90 -10 c-7 -2 -19 -2 -25 0 -7 3 -2 5 12 5 14 0 19 -2 13 -5z m-140 -10 c-7 -2 -19 -2 -25 0 -7 3 -2 5 12 5 14 0 19 -2 13 -5z m60 0 c-7 -2 -21 -2 -30 0 -10 3 -4 5 12 5 17 0 24 -2 18 -5z m-136 -9 c-3 -3 -12 -4 -19 -1 -8 3 -5 6 6 6 11 1 17 -2 13 -5z m2233 -934 c0 -26 4 -30 28 -31 l27 -2 -27 -4 c-23 -4 -28 -9 -28 -34 0 -18 -4 -28 -10 -24 -5 3 -10 17 -10 31 0 19 -5 24 -27 25 l-28 2 28 4 c22 4 27 9 27 34 0 16 5 29 10 29 6 0 10 -13 10 -30z m172 -8 c-3 -30 3 -48 31 -90 36 -52 36 -52 12 -52 -17 0 -23 4 -19 14 6 15 -22 76 -34 76 -5 0 -16 -16 -26 -37 -14 -29 -15 -38 -4 -44 8 -6 -3 -9 -29 -9 -43 0 -43 0 -23 20 32 32 62 100 58 131 -4 24 -1 29 16 29 19 0 21 -5 18 -38z"/>
 <path d="M3328 1653 c7 -3 16 -2 19 1 4 3 -2 6 -13 5 -11 0 -14 -3 -6 -6z"/>
 </g>
<g id="layer115" fill="#818083" stroke="none">
 <path d="M0 1200 l0 -1190 2225 0 2225 0 0 1190 0 1190 -2225 0 -2225 0 0 -1190z m603 1153 c59 -6 65 -11 45 -31 -6 -6 -10 -14 -7 -16 4 -4 720 -360 779 -387 19 -9 165 -83 325 -164 192 -97 301 -147 322 -147 17 0 71 5 120 11 48 6 165 20 258 31 180 22 222 27 485 62 259 34 384 22 430 -43 l22 -30 86 5 87 5 -75 -12 c-66 -11 -75 -14 -75 -34 0 -29 -6 -33 -56 -39 -24 -3 -64 -10 -88 -15 -24 -5 -168 -21 -321 -34 -420 -37 -593 -55 -598 -59 -2 -3 259 -137 581 -297 322 -161 584 -296 581 -301 -3 -4 -275 128 -605 293 -561 280 -604 300 -647 297 l-47 -3 -3 -620 c-1 -341 0 -626 3 -633 3 -10 10 -10 25 -2 24 13 24 16 0 -48 -11 -29 -21 -64 -22 -78 -3 -28 -18 -33 -18 -6 0 11 -9 45 -20 77 -11 32 -20 60 -20 62 0 2 9 -1 20 -7 20 -11 20 -8 20 623 l0 633 -32 -3 c-95 -9 -519 -43 -530 -43 -7 1 7 12 32 24 l45 24 -55 -4 c-38 -2 -59 -9 -67 -21 -7 -10 -17 -24 -23 -30 -15 -18 -157 -16 -255 4 -44 9 -111 16 -150 15 -44 0 -61 2 -45 7 21 6 14 9 -40 21 -75 15 -106 28 -94 40 10 10 644 83 652 75 2 -2 -2 -21 -11 -43 l-15 -38 125 17 c69 10 128 21 132 26 6 9 45 28 108 53 l33 12 -24 19 c-13 10 -162 88 -332 172 -170 85 -470 236 -666 336 -344 175 -357 181 -360 157 -3 -23 -7 -20 -72 41 -68 65 -69 66 -35 59 19 -4 60 -9 92 -13z m37 -184 c0 -6 20 -45 45 -86 25 -40 45 -78 45 -83 0 -6 -26 -10 -59 -10 -52 0 -59 2 -64 22 -8 28 0 36 16 16 14 -18 67 -30 67 -15 0 5 -20 42 -44 82 -25 40 -42 76 -39 79 11 10 33 7 33 -5z m98 -24 c2 -27 1 -28 -10 -10 -6 11 -19 26 -27 33 -14 11 -13 12 9 10 20 -2 26 -9 28 -33z m-208 -5 c0 -26 4 -30 28 -31 l27 -2 -27 -4 c-23 -4 -28 -9 -28 -34 0 -16 -4 -29 -10 -29 -5 0 -10 14 -10 30 0 26 -4 30 -27 31 l-28 2 28 4 c22 4 27 9 27 34 0 16 5 29 10 29 6 0 10 -13 10 -30z m2310 -139 c0 -32 -4 -34 -113 -46 l-58 -7 3 29 c3 26 8 29 63 39 99 19 105 18 105 -15z m1470 -246 c23 -8 61 -15 84 -16 l41 0 -64 -24 c-35 -13 -68 -28 -74 -34 -19 -19 -26 -12 -20 23 3 19 1 36 -6 40 -10 7 -16 26 -7 26 2 0 23 -7 46 -15z m-52 -42 c-10 -2 -28 -2 -40 0 -13 2 -5 4 17 4 22 1 32 -1 23 -4z m-110 -10 c-16 -2 -40 -2 -55 0 -16 2 -3 4 27 4 30 0 43 -2 28 -4z m-115 -10 c-7 -2 -21 -2 -30 0 -10 3 -4 5 12 5 17 0 24 -2 18 -5z m-95 -10 c-10 -2 -26 -2 -35 0 -10 3 -2 5 17 5 19 0 27 -2 18 -5z m-100 -10 c-16 -2 -40 -2 -55 0 -16 2 -3 4 27 4 30 0 43 -2 28 -4z m-120 -10 c-10 -2 -26 -2 -35 0 -10 3 -2 5 17 5 19 0 27 -2 18 -5z m-90 -10 c-10 -2 -26 -2 -35 0 -10 3 -2 5 17 5 19 0 27 -2 18 -5z m491 -49 c-7 -9 -5 -20 7 -40 l18 -26 22 27 c12 16 20 34 17 42 -4 9 5 13 32 13 l36 0 -40 -48 c-23 -27 -41 -53 -41 -58 0 -5 14 -26 31 -47 l30 -37 -24 0 c-19 0 -24 4 -21 18 2 9 -3 26 -12 37 -15 20 -15 20 -34 -5 -11 -14 -18 -31 -15 -37 3 -9 -6 -13 -26 -13 l-31 0 36 49 36 49 -34 45 -35 46 30 -1 c22 -1 27 -4 18 -14z m-119 -24 c0 -26 4 -30 28 -31 l27 -2 -27 -4 c-23 -4 -28 -9 -28 -34 0 -16 -4 -29 -10 -29 -5 0 -10 14 -10 30 0 26 -4 30 -27 31 l-28 2 28 4 c22 4 27 9 27 34 0 16 5 29 10 29 6 0 10 -13 10 -30z m-2957 -177 c-7 -2 -19 -2 -25 0 -7 3 -2 5 12 5 14 0 19 -2 13 -5z m-90 -10 c-7 -2 -19 -2 -25 0 -7 3 -2 5 12 5 14 0 19 -2 13 -5z m-100 -10 c-13 -2 -35 -2 -50 0 -16 2 -5 4 22 4 28 0 40 -2 28 -4z m-120 -10 c-7 -2 -19 -2 -25 0 -7 3 -2 5 12 5 14 0 19 -2 13 -5z m-90 -10 c-7 -2 -21 -2 -30 0 -10 3 -4 5 12 5 17 0 24 -2 18 -5z m-100 -10 c-13 -2 -35 -2 -50 0 -16 2 -5 4 22 4 28 0 40 -2 28 -4z m-130 -10 c-7 -2 -19 -2 -25 0 -7 3 -2 5 12 5 14 0 19 -2 13 -5z m-90 -10 c-7 -2 -19 -2 -25 0 -7 3 -2 5 12 5 14 0 19 -2 13 -5z m-140 -10 c-7 -2 -19 -2 -25 0 -7 3 -2 5 12 5 14 0 19 -2 13 -5z m60 0 c-7 -2 -21 -2 -30 0 -10 3 -4 5 12 5 17 0 24 -2 18 -5z m-136 -9 c-3 -3 -12 -4 -19 -1 -8 3 -5 6 6 6 11 1 17 -2 13 -5z m2233 -934 c0 -26 4 -30 28 -31 l27 -2 -27 -4 c-23 -4 -28 -9 -28 -34 0 -18 -4 -28 -10 -24 -5 3 -10 17 -10 31 0 19 -5 24 -27 25 l-28 2 28 4 c22 4 27 9 27 34 0 16 5 29 10 29 6 0 10 -13 10 -30z m172 -8 c-3 -30 3 -48 31 -90 36 -52 36 -52 12 -52 -17 0 -23 4 -19 14 6 15 -22 76 -34 76 -5 0 -16 -16 -26 -37 -14 -29 -15 -38 -4 -44 8 -6 -3 -9 -29 -9 -43 0 -43 0 -23 20 32 32 62 100 58 131 -4 24 -1 29 16 29 19 0 21 -5 18 -38z"/>
 <path d="M3328 1653 c7 -3 16 -2 19 1 4 3 -2 6 -13 5 -11 0 -14 -3 -6 -6z"/>
 </g>
<g id="layer116" fill="#919470" stroke="none">
 <path d="M0 1200 l0 -1190 2225 0 2225 0 0 1190 0 1190 -2225 0 -2225 0 0 -1190z m603 1153 c59 -6 65 -11 45 -31 -6 -6 -10 -14 -7 -16 4 -4 720 -360 779 -387 19 -9 165 -83 325 -164 l290 -147 60 6 c60 6 129 15 678 81 158 19 296 39 306 45 15 7 20 25 25 82 8 85 25 158 37 158 5 0 12 -12 15 -27 4 -16 13 -53 20 -83 8 -30 14 -69 14 -87 0 -37 10 -44 92 -62 48 -10 60 -18 79 -47 l21 -35 87 5 c86 5 86 5 21 -5 -89 -13 -95 -16 -80 -34 7 -9 11 -17 8 -20 -10 -10 -76 -34 -81 -29 -2 3 -42 -2 -88 -10 -46 -8 -120 -18 -164 -21 -44 -4 -174 -15 -290 -26 -115 -11 -262 -24 -325 -30 -63 -6 -119 -12 -125 -13 -5 -2 254 -135 577 -297 323 -161 585 -296 582 -301 -3 -4 -275 128 -605 293 -561 280 -604 300 -647 297 l-47 -3 -3 -620 c-1 -341 0 -626 3 -633 3 -10 10 -10 25 -2 24 13 24 16 0 -48 -11 -29 -21 -64 -22 -78 -3 -28 -18 -33 -18 -6 0 11 -9 45 -20 77 -11 32 -20 60 -20 62 0 2 9 -1 20 -7 20 -11 20 -8 20 621 l0 632 -87 -7 c-123 -9 -391 -34 -494 -46 -119 -14 -221 -12 -309 7 -41 8 -106 15 -145 15 -46 0 -61 2 -45 7 21 6 13 10 -45 21 -38 7 -83 19 -99 25 l-28 12 23 6 c29 7 205 29 464 57 453 49 538 59 543 64 2 3 -139 77 -314 164 -176 88 -480 241 -676 341 -344 175 -357 181 -360 157 -3 -23 -7 -20 -72 41 -68 65 -69 66 -35 59 19 -4 60 -9 92 -13z m2357 -178 c-526 -92 -904 -155 -913 -152 -6 2 34 11 89 20 54 10 162 28 239 42 504 91 577 103 625 103 19 0 1 -6 -40 -13z m173 8 c-7 -2 -19 -2 -25 0 -7 3 -2 5 12 5 14 0 19 -2 13 -5z m-2575 -74 l27 -2 -27 -4 c-23 -4 -28 -9 -28 -34 0 -16 -4 -29 -10 -29 -5 0 -10 14 -10 30 0 26 -4 30 -27 31 l-28 2 28 4 c22 4 27 9 27 32 0 42 15 48 18 7 3 -31 7 -36 30 -37z m179 36 c2 -28 2 -29 -8 -8 -12 23 -65 41 -79 27 -5 -5 11 -42 36 -82 24 -40 44 -77 44 -82 0 -6 -27 -10 -59 -10 -52 0 -61 3 -66 21 -9 27 4 39 16 16 9 -15 69 -26 69 -12 0 3 -20 39 -45 79 -25 41 -45 77 -45 81 0 3 30 5 68 3 67 -3 67 -3 69 -33z m2103 -144 c0 -32 -4 -34 -113 -46 l-58 -7 3 29 c3 26 8 29 63 39 99 19 105 18 105 -15z m-835 9 c-16 -4 -43 -8 -60 -8 -29 1 -29 1 5 8 19 4 46 7 60 8 22 0 22 -1 -5 -8z m-102 -17 c-7 -2 -19 -2 -25 0 -7 3 -2 5 12 5 14 0 19 -2 13 -5z m-50 -10 c-7 -2 -19 -2 -25 0 -7 3 -2 5 12 5 14 0 19 -2 13 -5z m2457 -228 c23 -8 61 -15 84 -16 l41 0 -64 -24 c-35 -13 -68 -28 -74 -34 -19 -19 -26 -12 -20 23 3 19 1 36 -6 40 -10 7 -16 26 -7 26 2 0 23 -7 46 -15z m-52 -42 c-10 -2 -28 -2 -40 0 -13 2 -5 4 17 4 22 1 32 -1 23 -4z m-110 -10 c-16 -2 -40 -2 -55 0 -16 2 -3 4 27 4 30 0 43 -2 28 -4z m-115 -10 c-7 -2 -21 -2 -30 0 -10 3 -4 5 12 5 17 0 24 -2 18 -5z m-95 -10 c-10 -2 -26 -2 -35 0 -10 3 -2 5 17 5 19 0 27 -2 18 -5z m-100 -10 c-16 -2 -40 -2 -55 0 -16 2 -3 4 27 4 30 0 43 -2 28 -4z m-120 -10 c-10 -2 -26 -2 -35 0 -10 3 -2 5 17 5 19 0 27 -2 18 -5z m-90 -10 c-10 -2 -26 -2 -35 0 -10 3 -2 5 17 5 19 0 27 -2 18 -5z m493 -47 c-10 -12 -9 -20 5 -42 l18 -26 22 28 c17 21 20 31 12 41 -8 10 -2 13 32 13 l42 0 -41 -49 c-23 -27 -41 -52 -41 -56 0 -4 14 -25 31 -46 l31 -39 -27 0 c-16 0 -24 4 -19 11 7 12 -14 59 -27 59 -3 0 -14 -12 -24 -26 -14 -22 -15 -28 -4 -35 9 -6 -2 -9 -30 -9 -37 0 -42 2 -30 13 8 6 27 28 41 48 l27 36 -25 37 c-14 20 -29 36 -34 36 -6 0 -10 5 -10 10 0 6 14 10 31 10 26 0 29 -2 20 -14z m-121 -26 c0 -26 4 -30 28 -31 l27 -2 -27 -4 c-23 -4 -28 -9 -28 -34 0 -16 -4 -29 -10 -29 -5 0 -10 14 -10 30 0 26 -4 30 -27 31 l-28 2 28 4 c22 4 27 9 27 34 0 16 5 29 10 29 6 0 10 -13 10 -30z m-2957 -177 c-7 -2 -19 -2 -25 0 -7 3 -2 5 12 5 14 0 19 -2 13 -5z m-90 -10 c-7 -2 -19 -2 -25 0 -7 3 -2 5 12 5 14 0 19 -2 13 -5z m-100 -10 c-13 -2 -35 -2 -50 0 -16 2 -5 4 22 4 28 0 40 -2 28 -4z m-120 -10 c-7 -2 -19 -2 -25 0 -7 3 -2 5 12 5 14 0 19 -2 13 -5z m-90 -10 c-7 -2 -21 -2 -30 0 -10 3 -4 5 12 5 17 0 24 -2 18 -5z m-100 -10 c-13 -2 -35 -2 -50 0 -16 2 -5 4 22 4 28 0 40 -2 28 -4z m-130 -10 c-7 -2 -19 -2 -25 0 -7 3 -2 5 12 5 14 0 19 -2 13 -5z m-90 -10 c-7 -2 -19 -2 -25 0 -7 3 -2 5 12 5 14 0 19 -2 13 -5z m-140 -10 c-7 -2 -19 -2 -25 0 -7 3 -2 5 12 5 14 0 19 -2 13 -5z m60 0 c-7 -2 -21 -2 -30 0 -10 3 -4 5 12 5 17 0 24 -2 18 -5z m-136 -9 c-3 -3 -12 -4 -19 -1 -8 3 -5 6 6 6 11 1 17 -2 13 -5z m2423 -906 c0 -4 -4 -8 -10 -8 -23 0 -9 -69 24 -119 l35 -51 -32 0 c-24 0 -28 3 -17 10 12 8 12 13 -3 44 -9 20 -20 36 -25 36 -5 0 -16 -15 -24 -34 -12 -25 -14 -36 -5 -45 8 -8 0 -11 -31 -11 -42 0 -42 0 -22 20 43 43 74 130 50 145 -19 12 -10 20 25 21 19 0 35 -3 35 -8z m-190 -28 c0 -26 4 -30 28 -31 l27 -2 -27 -4 c-23 -4 -28 -9 -28 -34 0 -16 -4 -29 -10 -29 -5 0 -10 14 -10 30 0 26 -4 30 -27 31 l-28 2 28 4 c22 4 27 9 27 34 0 16 5 29 10 29 6 0 10 -13 10 -30z"/>
 </g>
<g id="layer117" fill="#e2605a" stroke="none">
 <path d="M0 1200 l0 -1190 2225 0 2225 0 0 1190 0 1190 -2225 0 -2225 0 0 -1190z m603 1153 c59 -6 65 -11 45 -31 -6 -6 -10 -14 -7 -16 4 -4 720 -360 779 -387 19 -9 165 -83 325 -164 l290 -147 60 6 c60 6 129 15 678 81 158 19 296 39 306 45 15 7 20 25 25 82 8 85 25 158 37 158 5 0 12 -12 15 -27 4 -16 13 -53 20 -83 8 -30 14 -69 14 -87 0 -37 10 -44 93 -62 36 -8 61 -19 67 -31 24 -46 38 -51 123 -46 l82 5 -65 -10 c-89 -13 -95 -16 -80 -34 7 -9 11 -17 8 -20 -10 -10 -76 -34 -81 -29 -2 3 -42 -2 -88 -10 -46 -8 -120 -18 -164 -21 -44 -4 -174 -15 -290 -26 -115 -11 -262 -24 -325 -30 -63 -6 -119 -12 -125 -13 -5 -2 254 -135 577 -297 323 -161 585 -296 582 -301 -3 -4 -275 128 -605 293 -561 280 -604 300 -647 297 l-47 -3 -3 -620 c-1 -341 0 -626 3 -633 3 -10 10 -10 25 -2 24 13 24 16 1 -46 -11 -28 -22 -63 -23 -77 -5 -36 -18 -46 -18 -15 0 14 -9 51 -20 83 -11 32 -20 60 -20 62 0 2 9 -1 20 -7 20 -11 20 -8 20 621 l0 632 -87 -7 c-123 -9 -391 -34 -494 -46 -119 -14 -221 -12 -309 7 -41 8 -106 15 -145 15 -46 -1 -63 2 -50 7 16 7 7 11 -40 20 -64 13 -127 33 -121 38 7 8 132 25 391 53 154 17 358 39 454 50 95 10 176 21 179 24 2 3 -139 77 -314 164 -176 88 -480 241 -676 341 -344 175 -357 181 -360 157 -3 -23 -7 -20 -72 41 -68 65 -69 66 -35 59 19 -4 60 -9 92 -13z m2357 -178 c-526 -92 -904 -155 -913 -152 -6 2 34 11 89 20 54 10 162 28 239 42 504 91 577 103 625 103 19 0 1 -6 -40 -13z m173 8 c-7 -2 -19 -2 -25 0 -7 3 -2 5 12 5 14 0 19 -2 13 -5z m-2575 -74 l27 -2 -27 -4 c-23 -4 -28 -9 -28 -34 0 -16 -4 -29 -10 -29 -5 0 -10 14 -10 30 0 26 -4 30 -27 31 l-28 2 28 4 c22 4 27 9 27 32 0 42 15 48 18 7 3 -31 7 -36 30 -37z m179 36 c2 -28 2 -29 -8 -8 -12 23 -65 41 -79 27 -5 -5 11 -42 36 -82 24 -40 44 -77 44 -82 0 -6 -27 -10 -59 -10 -52 0 -61 3 -66 21 -9 27 4 39 16 16 9 -15 69 -26 69 -12 0 3 -20 39 -45 79 -25 41 -45 77 -45 81 0 3 30 5 68 3 67 -3 67 -3 69 -33z m2103 -144 c0 -32 -4 -34 -113 -46 l-58 -7 3 29 c3 26 8 29 63 39 99 19 105 18 105 -15z m-835 9 c-16 -4 -43 -8 -60 -8 -29 1 -29 1 5 8 19 4 46 7 60 8 22 0 22 -1 -5 -8z m-102 -17 c-7 -2 -19 -2 -25 0 -7 3 -2 5 12 5 14 0 19 -2 13 -5z m-50 -10 c-7 -2 -19 -2 -25 0 -7 3 -2 5 12 5 14 0 19 -2 13 -5z m2457 -228 c23 -8 61 -15 84 -16 l41 0 -64 -24 c-35 -13 -68 -28 -74 -34 -19 -19 -26 -12 -20 23 3 19 1 36 -6 40 -10 7 -16 26 -7 26 2 0 23 -7 46 -15z m-52 -42 c-10 -2 -28 -2 -40 0 -13 2 -5 4 17 4 22 1 32 -1 23 -4z m-110 -10 c-16 -2 -40 -2 -55 0 -16 2 -3 4 27 4 30 0 43 -2 28 -4z m-115 -10 c-7 -2 -21 -2 -30 0 -10 3 -4 5 12 5 17 0 24 -2 18 -5z m-95 -10 c-10 -2 -26 -2 -35 0 -10 3 -2 5 17 5 19 0 27 -2 18 -5z m-100 -10 c-16 -2 -40 -2 -55 0 -16 2 -3 4 27 4 30 0 43 -2 28 -4z m-120 -10 c-10 -2 -26 -2 -35 0 -10 3 -2 5 17 5 19 0 27 -2 18 -5z m-90 -10 c-10 -2 -26 -2 -35 0 -10 3 -2 5 17 5 19 0 27 -2 18 -5z m493 -47 c-10 -12 -9 -20 5 -42 l18 -26 22 28 c17 21 20 31 12 41 -8 10 -2 13 32 13 l42 0 -41 -49 c-23 -27 -41 -52 -41 -56 0 -4 14 -25 31 -46 l31 -39 -27 0 c-16 0 -24 4 -19 11 7 12 -14 59 -27 59 -3 0 -14 -12 -24 -26 -14 -22 -15 -28 -4 -35 9 -6 -2 -9 -30 -9 -37 0 -42 2 -30 13 8 6 27 28 41 48 l27 36 -25 37 c-14 20 -29 36 -34 36 -6 0 -10 5 -10 10 0 6 14 10 31 10 26 0 29 -2 20 -14z m-121 -26 c0 -26 4 -30 28 -31 l27 -2 -27 -4 c-23 -4 -28 -9 -28 -34 0 -16 -4 -29 -10 -29 -5 0 -10 14 -10 30 0 26 -4 30 -27 31 l-28 2 28 4 c22 4 27 9 27 34 0 16 5 29 10 29 6 0 10 -13 10 -30z m-2957 -177 c-7 -2 -19 -2 -25 0 -7 3 -2 5 12 5 14 0 19 -2 13 -5z m-90 -10 c-7 -2 -19 -2 -25 0 -7 3 -2 5 12 5 14 0 19 -2 13 -5z m-100 -10 c-13 -2 -35 -2 -50 0 -16 2 -5 4 22 4 28 0 40 -2 28 -4z m-120 -10 c-7 -2 -19 -2 -25 0 -7 3 -2 5 12 5 14 0 19 -2 13 -5z m-90 -10 c-7 -2 -21 -2 -30 0 -10 3 -4 5 12 5 17 0 24 -2 18 -5z m-100 -10 c-13 -2 -35 -2 -50 0 -16 2 -5 4 22 4 28 0 40 -2 28 -4z m-130 -10 c-7 -2 -19 -2 -25 0 -7 3 -2 5 12 5 14 0 19 -2 13 -5z m-90 -10 c-7 -2 -19 -2 -25 0 -7 3 -2 5 12 5 14 0 19 -2 13 -5z m-140 -10 c-7 -2 -19 -2 -25 0 -7 3 -2 5 12 5 14 0 19 -2 13 -5z m60 0 c-7 -2 -21 -2 -30 0 -10 3 -4 5 12 5 17 0 24 -2 18 -5z m-136 -9 c-3 -3 -12 -4 -19 -1 -8 3 -5 6 6 6 11 1 17 -2 13 -5z m2423 -906 c0 -4 -4 -8 -10 -8 -23 0 -9 -69 24 -119 l35 -51 -32 0 c-24 0 -28 3 -17 10 12 8 12 13 -3 44 -9 20 -20 36 -25 36 -5 0 -16 -15 -24 -34 -12 -25 -14 -36 -5 -45 8 -8 0 -11 -31 -11 -42 0 -42 0 -22 20 43 43 74 130 50 145 -19 12 -10 20 25 21 19 0 35 -3 35 -8z m-190 -28 c0 -26 4 -30 28 -31 l27 -2 -27 -4 c-23 -4 -28 -9 -28 -34 0 -16 -4 -29 -10 -29 -5 0 -10 14 -10 30 0 26 -4 30 -27 31 l-28 2 28 4 c22 4 27 9 27 34 0 16 5 29 10 29 6 0 10 -13 10 -30z"/>
 </g>
<g id="layer118" fill="#909090" stroke="none">
 <path d="M0 1200 l0 -1190 2225 0 2225 0 0 1190 0 1190 -2225 0 -2225 0 0 -1190z m603 1153 c59 -6 65 -11 45 -31 -6 -6 -10 -14 -7 -16 4 -4 720 -360 779 -387 19 -9 165 -83 325 -164 l290 -147 60 6 c60 6 129 15 678 81 158 19 296 39 306 45 15 7 20 25 25 82 8 85 25 158 37 158 5 0 12 -12 15 -27 4 -16 13 -53 20 -83 8 -30 14 -69 14 -87 0 -37 10 -44 92 -62 46 -10 61 -18 75 -41 9 -16 22 -31 27 -33 10 -3 151 9 551 47 253 25 326 33 332 40 3 3 0 13 -8 22 -13 16 -12 17 11 11 14 -3 55 -11 93 -18 37 -7 67 -16 67 -21 0 -4 -8 -8 -17 -8 -10 0 -47 -14 -82 -30 -35 -17 -66 -29 -68 -26 -3 2 1 14 7 26 11 21 10 22 -17 16 -15 -3 -59 -8 -98 -11 -38 -3 -135 -12 -215 -20 -80 -8 -219 -21 -310 -30 -230 -22 -234 -23 -219 -41 6 -8 10 -16 7 -19 -10 -10 -76 -34 -81 -29 -2 3 -42 -2 -88 -10 -46 -8 -120 -18 -164 -21 -44 -4 -174 -15 -290 -26 -115 -11 -262 -24 -325 -30 -63 -6 -119 -12 -125 -13 -5 -2 254 -135 577 -297 323 -161 585 -296 582 -301 -3 -4 -275 128 -605 293 -561 280 -604 300 -647 297 l-47 -3 -3 -620 c-1 -341 0 -626 3 -633 3 -10 10 -10 25 -2 24 13 24 16 1 -46 -11 -28 -22 -63 -23 -77 -5 -36 -18 -46 -18 -15 0 14 -9 51 -20 83 -11 32 -20 60 -20 62 0 2 9 -1 20 -7 20 -11 20 -8 20 621 l0 632 -87 -7 c-123 -9 -391 -34 -494 -46 -121 -14 -207 -12 -316 6 -102 17 -95 18 -563 -31 -74 -8 -166 -17 -205 -20 -38 -3 -133 -12 -210 -20 -215 -22 -235 -23 -235 -15 0 7 62 15 380 45 91 9 228 22 305 30 77 8 178 17 223 21 46 3 96 10 110 14 24 6 19 9 -33 19 -64 13 -127 33 -121 38 7 8 132 25 391 53 154 17 358 39 454 50 95 10 176 21 179 24 2 3 -139 77 -314 164 -176 88 -480 241 -676 341 -344 175 -357 181 -360 157 -3 -23 -7 -20 -72 41 -68 65 -69 66 -35 59 19 -4 60 -9 92 -13z m2357 -178 c-526 -92 -904 -155 -913 -152 -6 2 34 11 89 20 54 10 162 28 239 42 504 91 577 103 625 103 19 0 1 -6 -40 -13z m173 8 c-7 -2 -19 -2 -25 0 -7 3 -2 5 12 5 14 0 19 -2 13 -5z m-2575 -74 l27 -2 -27 -4 c-23 -4 -28 -9 -28 -34 0 -16 -4 -29 -10 -29 -5 0 -10 14 -10 30 0 26 -4 30 -27 31 l-28 2 28 4 c22 4 27 9 27 32 0 42 15 48 18 7 3 -31 7 -36 30 -37z m179 36 c2 -28 2 -29 -8 -8 -12 23 -65 41 -79 27 -5 -5 11 -42 36 -82 24 -40 44 -77 44 -82 0 -6 -27 -10 -59 -10 -52 0 -61 3 -66 21 -9 27 4 39 16 16 9 -15 69 -26 69 -12 0 3 -20 39 -45 79 -25 41 -45 77 -45 81 0 3 30 5 68 3 67 -3 67 -3 69 -33z m2103 -144 c0 -32 -4 -34 -113 -46 l-58 -7 3 29 c3 26 8 29 63 39 99 19 105 18 105 -15z m-835 9 c-16 -4 -43 -8 -60 -8 -29 1 -29 1 5 8 19 4 46 7 60 8 22 0 22 -1 -5 -8z m-102 -17 c-7 -2 -19 -2 -25 0 -7 3 -2 5 12 5 14 0 19 -2 13 -5z m-50 -10 c-7 -2 -19 -2 -25 0 -7 3 -2 5 12 5 14 0 19 -2 13 -5z m2268 -377 c-10 -12 -9 -20 5 -42 l18 -26 22 28 c17 21 20 31 12 41 -8 10 -2 13 32 13 l42 0 -41 -49 c-23 -27 -41 -52 -41 -56 0 -4 14 -25 31 -46 l31 -39 -27 0 c-16 0 -24 4 -19 11 7 12 -14 59 -27 59 -3 0 -14 -12 -24 -26 -14 -22 -15 -28 -4 -35 9 -6 -2 -9 -30 -9 -37 0 -42 2 -30 13 8 6 27 28 41 48 l27 36 -25 37 c-14 20 -29 36 -34 36 -6 0 -10 5 -10 10 0 6 14 10 31 10 26 0 29 -2 20 -14z m-121 -26 c0 -26 4 -30 28 -31 l27 -2 -27 -4 c-23 -4 -28 -9 -28 -34 0 -16 -4 -29 -10 -29 -5 0 -10 14 -10 30 0 26 -4 30 -27 31 l-28 2 28 4 c22 4 27 9 27 34 0 16 5 29 10 29 6 0 10 -13 10 -30z m-1470 -1172 c0 -4 -4 -8 -10 -8 -23 0 -9 -69 24 -119 l35 -51 -32 0 c-24 0 -28 3 -17 10 12 8 12 13 -3 44 -9 20 -20 36 -25 36 -5 0 -16 -15 -24 -34 -12 -25 -14 -36 -5 -45 8 -8 0 -11 -31 -11 -42 0 -42 0 -22 20 43 43 74 130 50 145 -19 12 -10 20 25 21 19 0 35 -3 35 -8z m-190 -28 c0 -26 4 -30 28 -31 l27 -2 -27 -4 c-23 -4 -28 -9 -28 -34 0 -16 -4 -29 -10 -29 -5 0 -10 14 -10 30 0 26 -4 30 -27 31 l-28 2 28 4 c22 4 27 9 27 34 0 16 5 29 10 29 6 0 10 -13 10 -30z"/>
 </g>
<g id="layer119" fill="#84e052" stroke="none">
 <path d="M0 1200 l0 -1190 2225 0 2225 0 0 1190 0 1190 -2225 0 -2225 0 0 -1190z m603 1153 c59 -6 65 -11 45 -31 -6 -6 -10 -14 -7 -16 19 -18 778 -386 796 -386 13 0 22 -4 19 -9 -3 -4 126 -74 286 -155 l291 -147 221 26 c224 26 678 81 751 90 22 3 46 9 53 14 19 11 29 389 12 421 -15 28 13 31 -525 -61 -944 -162 -1050 -179 -1064 -177 -28 6 1380 259 1534 276 91 10 140 7 163 -11 7 -5 12 -32 12 -61 0 -71 29 -346 40 -373 6 -15 21 -23 52 -28 31 -6 52 -18 78 -45 l35 -37 185 18 c570 53 679 65 687 73 3 3 0 13 -8 22 -13 16 -12 17 11 11 14 -3 55 -11 93 -18 37 -7 67 -16 67 -21 0 -4 -8 -8 -17 -8 -10 0 -47 -14 -82 -30 -35 -17 -66 -29 -68 -26 -3 2 1 14 7 26 11 21 10 22 -17 16 -15 -3 -59 -8 -98 -11 -38 -3 -135 -12 -215 -20 -80 -8 -219 -21 -310 -30 -222 -21 -235 -24 -221 -38 6 -6 11 -15 11 -19 0 -24 -141 -48 -425 -74 -93 -8 -242 -21 -330 -29 -88 -8 -195 -18 -237 -22 -43 -3 -78 -9 -78 -12 0 -3 261 -136 579 -296 319 -159 578 -292 575 -297 -3 -4 -275 127 -604 292 -596 298 -633 314 -684 294 -14 -6 -16 -70 -16 -628 0 -343 3 -626 6 -629 4 -3 15 -2 25 4 23 12 23 15 0 -47 -11 -28 -22 -63 -23 -77 -5 -36 -18 -46 -18 -15 0 14 -9 51 -20 83 -11 32 -20 60 -20 62 0 2 9 -1 20 -7 20 -11 20 -8 20 620 0 497 -3 630 -12 630 -7 0 -159 -14 -338 -30 -373 -34 -431 -36 -555 -14 -96 17 -96 17 -555 -31 -74 -8 -166 -17 -205 -20 -38 -3 -133 -12 -210 -20 -215 -22 -235 -23 -235 -15 0 7 62 15 380 45 91 9 228 22 305 30 77 8 178 17 225 21 129 10 138 18 45 39 -95 21 -117 30 -89 38 28 9 366 48 789 93 83 8 170 19 195 23 l45 7 -290 145 c-159 79 -300 149 -312 154 -12 6 -82 42 -155 81 -73 40 -237 124 -365 188 -223 111 -232 115 -235 92 -3 -23 -8 -19 -72 41 -68 65 -69 66 -35 59 19 -4 60 -9 92 -13z m-45 -244 l27 -2 -27 -4 c-23 -4 -28 -9 -28 -34 0 -16 -4 -29 -10 -29 -5 0 -10 14 -10 30 0 26 -4 30 -27 31 l-28 2 28 4 c22 4 27 9 27 32 0 42 15 48 18 7 3 -31 7 -36 30 -37z m179 36 c3 -29 2 -29 -9 -7 -9 17 -20 22 -49 22 l-39 0 45 -74 c25 -40 45 -79 45 -85 0 -8 -20 -11 -62 -9 -57 3 -63 5 -66 26 -4 25 13 30 22 7 5 -13 66 -23 66 -10 0 2 -20 38 -45 78 -25 41 -45 78 -45 81 0 4 30 6 68 4 67 -3 67 -3 69 -33z m2103 -144 c0 -32 -4 -34 -113 -46 l-58 -7 3 29 c3 26 8 29 63 39 99 19 105 18 105 -15z m1282 -394 c-8 -9 -6 -20 7 -41 l18 -28 21 30 c16 22 18 32 10 40 -9 9 -2 12 31 12 l43 0 -41 -49 c-23 -27 -41 -53 -41 -58 0 -5 15 -26 34 -46 l34 -37 -28 0 c-22 0 -27 4 -24 18 2 9 -3 26 -12 37 -15 20 -15 20 -34 -5 -13 -18 -16 -28 -8 -37 8 -10 1 -13 -33 -13 -24 0 -39 4 -34 8 6 4 25 25 42 48 l32 41 -23 32 c-14 18 -33 39 -43 46 -16 13 -15 14 21 15 30 0 36 -3 28 -13z m-122 -27 c0 -26 4 -30 28 -31 l27 -2 -27 -4 c-23 -4 -28 -9 -28 -34 0 -16 -4 -29 -10 -29 -5 0 -10 14 -10 30 0 26 -4 30 -27 31 l-28 2 28 4 c22 4 27 9 27 34 0 16 5 29 10 29 6 0 10 -13 10 -30z m-1470 -1170 c0 -5 -4 -10 -10 -10 -23 0 -9 -67 24 -118 l35 -52 -32 0 c-24 0 -28 3 -17 10 12 8 12 13 -3 44 -9 20 -21 36 -26 36 -13 0 -34 -57 -27 -75 4 -12 -3 -15 -34 -15 -40 0 -40 0 -20 20 24 24 60 94 60 116 0 10 -7 26 -17 36 -15 17 -14 18 25 18 23 0 42 -4 42 -10z m-190 -30 c0 -26 4 -30 28 -31 l27 -2 -27 -4 c-23 -4 -28 -9 -28 -34 0 -16 -4 -29 -10 -29 -5 0 -10 14 -10 30 0 26 -4 30 -27 31 l-28 2 28 4 c22 4 27 9 27 34 0 16 5 29 10 29 6 0 10 -13 10 -30z"/>
 </g>
<g id="layer120" fill="#7a88ce" stroke="none">
 <path d="M0 1200 l0 -1190 2225 0 2225 0 0 1190 0 1190 -2225 0 -2225 0 0 -1190z m603 1153 c59 -6 65 -11 45 -31 -6 -6 -10 -14 -7 -16 19 -18 778 -386 796 -386 13 0 22 -4 19 -9 -3 -4 126 -74 286 -155 l291 -147 221 26 c224 26 678 81 751 90 22 3 46 9 53 14 19 11 29 389 12 421 -15 28 13 31 -525 -61 -944 -162 -1050 -179 -1064 -177 -28 6 1380 259 1534 276 91 10 140 7 163 -11 7 -5 12 -32 12 -61 0 -71 29 -346 40 -373 6 -15 21 -23 52 -28 31 -6 52 -18 78 -45 l35 -37 185 18 c570 53 679 65 687 73 3 3 0 13 -8 22 -13 16 -12 17 11 11 14 -3 55 -11 93 -18 37 -7 67 -16 67 -21 0 -4 -8 -8 -17 -8 -10 0 -47 -14 -82 -30 -35 -17 -66 -29 -68 -26 -3 2 1 14 7 26 11 21 10 22 -17 16 -15 -3 -59 -8 -98 -11 -38 -3 -135 -12 -215 -20 -80 -8 -219 -21 -310 -30 -222 -21 -235 -24 -221 -38 6 -6 11 -15 11 -19 0 -24 -141 -48 -425 -74 -93 -8 -242 -21 -330 -29 -88 -8 -195 -18 -237 -22 -43 -3 -78 -9 -78 -12 0 -3 261 -136 579 -296 319 -159 578 -292 575 -297 -3 -4 -275 128 -605 293 -538 268 -605 300 -643 297 l-41 -3 -3 -628 c-2 -625 -2 -628 18 -622 24 8 26 -5 5 -44 -8 -16 -17 -47 -21 -70 -9 -54 -20 -60 -28 -13 -4 20 -14 56 -23 80 -17 46 -13 62 12 42 13 -11 15 54 15 619 0 498 -3 631 -12 631 -7 0 -159 -14 -338 -30 -373 -34 -431 -36 -555 -14 -96 17 -96 17 -555 -31 -74 -8 -166 -17 -205 -20 -38 -3 -133 -12 -210 -20 -215 -22 -235 -23 -235 -15 0 7 62 15 380 45 91 9 228 22 305 30 77 8 178 17 225 21 129 10 138 18 45 39 -95 21 -117 30 -89 38 28 9 366 48 789 93 83 8 170 19 195 23 l45 7 -290 145 c-159 79 -300 149 -312 154 -12 6 -82 42 -155 81 -73 40 -237 124 -365 188 -223 111 -232 115 -235 92 -3 -23 -8 -19 -72 41 -68 65 -69 66 -35 59 19 -4 60 -9 92 -13z m-45 -244 l27 -2 -27 -4 c-23 -4 -28 -9 -28 -34 0 -16 -4 -29 -10 -29 -5 0 -10 14 -10 30 0 26 -4 30 -27 31 l-28 2 28 4 c22 4 27 9 27 32 0 42 15 48 18 7 3 -31 7 -36 30 -37z m179 36 c3 -29 2 -29 -9 -7 -9 17 -20 22 -49 22 l-39 0 45 -74 c25 -40 45 -79 45 -85 0 -8 -20 -11 -62 -9 -57 3 -63 5 -66 26 -4 25 13 30 22 7 5 -13 66 -23 66 -10 0 2 -20 38 -45 78 -25 41 -45 78 -45 81 0 4 30 6 68 4 67 -3 67 -3 69 -33z m2103 -144 l0 -39 -67 -7 c-38 -4 -76 -9 -85 -11 -15 -4 -18 1 -18 30 0 20 1 36 3 37 2 0 139 24 160 28 4 0 7 -17 7 -38z m1282 -394 c-8 -9 -6 -20 7 -41 l18 -28 21 30 c16 22 18 32 10 40 -9 9 -2 12 31 12 l43 0 -41 -49 c-23 -27 -41 -53 -41 -58 0 -5 15 -26 34 -46 l34 -37 -28 0 c-22 0 -27 4 -24 18 2 9 -3 26 -12 37 -15 20 -15 20 -34 -5 -13 -18 -16 -28 -8 -37 8 -10 1 -13 -33 -13 -24 0 -39 4 -34 8 6 4 25 25 42 48 l32 41 -23 32 c-14 18 -33 39 -43 46 -16 13 -15 14 21 15 30 0 36 -3 28 -13z m-122 -27 c0 -26 4 -30 28 -31 l27 -2 -27 -4 c-23 -4 -28 -9 -28 -34 0 -16 -4 -29 -10 -29 -5 0 -10 14 -10 30 0 26 -4 30 -27 31 l-28 2 28 4 c22 4 27 9 27 34 0 16 5 29 10 29 6 0 10 -13 10 -30z m-1470 -1170 c0 -5 -4 -10 -10 -10 -23 0 -9 -67 24 -118 l35 -52 -32 0 c-24 0 -28 3 -17 10 12 8 12 13 -3 44 -9 20 -21 36 -26 36 -13 0 -34 -57 -27 -75 4 -12 -3 -15 -34 -15 -40 0 -40 0 -20 20 24 24 60 94 60 116 0 10 -7 26 -17 36 -15 17 -14 18 25 18 23 0 42 -4 42 -10z m-190 -30 c0 -26 4 -30 28 -31 l27 -2 -27 -4 c-23 -4 -28 -9 -28 -34 0 -16 -4 -29 -10 -29 -5 0 -10 14 -10 30 0 26 -4 30 -27 31 l-28 2 28 4 c22 4 27 9 27 34 0 16 5 29 10 29 6 0 10 -13 10 -30z"/>
 </g>
<g id="layer121" fill="#a1a1a0" stroke="none">
 <path d="M0 1200 l0 -1190 2225 0 2225 0 0 1190 0 1190 -2225 0 -2225 0 0 -1190z m613 1153 c49 -6 55 -11 35 -31 -6 -6 -10 -14 -7 -16 14 -14 764 -378 789 -383 17 -3 30 -9 30 -14 0 -5 132 -74 293 -154 l293 -145 254 30 c238 28 614 74 705 85 22 3 46 9 53 14 19 11 29 389 12 421 -15 28 13 31 -525 -61 -944 -162 -1050 -179 -1064 -177 -28 6 1380 259 1534 276 91 10 140 7 163 -11 7 -5 12 -32 12 -61 0 -71 29 -346 40 -373 6 -15 21 -23 52 -28 31 -6 52 -18 78 -45 l35 -37 185 18 c570 53 679 65 687 73 3 3 0 13 -8 22 -13 16 -12 17 11 11 14 -3 55 -11 93 -18 37 -7 67 -16 67 -21 0 -4 -8 -8 -17 -8 -10 0 -47 -14 -82 -30 -35 -17 -66 -29 -68 -26 -3 2 1 14 7 26 11 21 10 22 -17 16 -15 -3 -59 -8 -98 -11 -38 -3 -135 -12 -215 -20 -80 -8 -219 -21 -310 -30 -222 -21 -235 -24 -221 -38 6 -6 11 -15 11 -19 0 -24 -141 -48 -425 -74 -93 -8 -242 -21 -330 -29 -88 -8 -195 -18 -238 -22 -43 -3 -74 -9 -70 -14 4 -4 266 -136 581 -293 314 -158 572 -291 572 -296 0 -6 -5 -10 -11 -10 -6 0 -281 135 -611 301 -507 253 -606 300 -637 297 l-36 -3 -3 -628 c-2 -625 -2 -628 18 -622 24 8 26 -5 5 -44 -8 -16 -17 -47 -21 -70 -9 -54 -20 -60 -28 -13 -4 20 -14 56 -23 80 -17 46 -13 62 12 42 13 -11 15 54 15 619 0 498 -3 631 -12 631 -7 0 -159 -14 -338 -30 -373 -34 -431 -36 -555 -14 -96 17 -96 17 -555 -31 -74 -8 -166 -17 -205 -20 -38 -3 -133 -12 -210 -20 -215 -22 -235 -23 -235 -15 0 7 62 15 380 45 91 9 228 22 305 30 77 8 178 17 225 21 129 10 138 18 45 39 -95 21 -117 30 -89 38 29 9 384 51 789 92 269 28 279 7 -90 192 -176 88 -476 240 -667 337 -191 97 -350 176 -353 176 -3 0 -5 -9 -5 -20 0 -11 -3 -20 -7 -20 -5 0 -37 30 -73 66 l-65 67 45 -7 c25 -4 66 -10 93 -13z m-55 -244 l27 -2 -27 -4 c-23 -4 -28 -9 -28 -34 0 -16 -4 -29 -10 -29 -5 0 -10 14 -10 30 0 26 -4 30 -27 31 l-28 2 28 4 c22 4 27 9 27 32 0 42 15 48 18 7 3 -31 7 -36 30 -37z m179 36 c3 -29 2 -29 -9 -7 -9 17 -20 22 -49 22 l-39 0 45 -74 c25 -40 45 -79 45 -85 0 -8 -20 -11 -62 -9 -57 3 -63 5 -66 26 -4 25 13 30 22 7 5 -13 66 -23 66 -10 0 2 -20 38 -45 78 -25 41 -45 78 -45 81 0 4 30 6 68 4 67 -3 67 -3 69 -33z m2103 -144 l0 -39 -67 -7 c-38 -4 -76 -9 -85 -11 -15 -4 -18 1 -18 30 0 20 1 36 3 37 2 0 139 24 160 28 4 0 7 -17 7 -38z m1282 -394 c-8 -9 -6 -20 7 -41 l18 -28 21 30 c16 22 18 32 10 40 -9 9 -2 12 31 12 l43 0 -41 -49 c-23 -27 -41 -53 -41 -58 0 -5 15 -26 34 -46 l34 -37 -28 0 c-22 0 -27 4 -24 18 2 9 -3 26 -12 37 -15 20 -15 20 -34 -5 -13 -18 -16 -28 -8 -37 8 -10 1 -13 -33 -13 -24 0 -39 4 -34 8 6 4 25 25 42 48 l32 41 -23 32 c-14 18 -33 39 -43 46 -16 13 -15 14 21 15 30 0 36 -3 28 -13z m-122 -27 c0 -26 4 -30 28 -31 l27 -2 -27 -4 c-23 -4 -28 -9 -28 -34 0 -16 -4 -29 -10 -29 -5 0 -10 14 -10 30 0 26 -4 30 -27 31 l-28 2 28 4 c22 4 27 9 27 34 0 16 5 29 10 29 6 0 10 -13 10 -30z m-1470 -1170 c0 -5 -4 -10 -10 -10 -23 0 -9 -67 24 -118 l35 -52 -32 0 c-24 0 -28 3 -17 10 12 8 12 13 -3 44 -9 20 -21 36 -26 36 -13 0 -34 -57 -27 -75 4 -12 -3 -15 -34 -15 -40 0 -40 0 -20 20 24 24 60 94 60 116 0 10 -7 26 -17 36 -15 17 -14 18 25 18 23 0 42 -4 42 -10z m-190 -30 c0 -26 4 -30 28 -31 l27 -2 -27 -4 c-23 -4 -28 -9 -28 -34 0 -16 -4 -29 -10 -29 -5 0 -10 14 -10 30 0 26 -4 30 -27 31 l-28 2 28 4 c22 4 27 9 27 34 0 16 5 29 10 29 6 0 10 -13 10 -30z"/>
 </g>
<g id="layer122" fill="#b2b2b4" stroke="none">
 <path d="M0 1200 l0 -1190 2225 0 2225 0 0 1190 0 1190 -2225 0 -2225 0 0 -1190z m613 1153 c49 -6 55 -11 35 -31 -6 -6 -10 -14 -7 -16 3 -3 176 -89 384 -192 254 -125 390 -187 410 -186 17 0 138 21 270 47 556 106 1265 227 1361 232 122 7 179 -7 168 -40 -10 -31 -3 -215 14 -372 7 -59 7 -60 46 -70 23 -7 52 -26 70 -46 l31 -36 185 18 c574 54 679 65 687 73 3 3 0 13 -8 22 -13 16 -12 17 11 11 14 -3 55 -11 93 -18 37 -7 67 -16 67 -21 0 -4 -8 -8 -17 -8 -10 0 -47 -14 -82 -30 -35 -17 -66 -29 -68 -26 -3 2 1 14 7 26 11 21 10 22 -11 17 -13 -3 -60 -8 -104 -12 -44 -3 -141 -12 -215 -20 -74 -7 -214 -21 -310 -30 -223 -21 -223 -21 -215 -45 15 -48 -44 -57 -895 -131 -74 -7 -140 -15 -147 -18 -7 -4 246 -136 562 -294 316 -158 575 -292 575 -297 0 -6 -5 -10 -11 -10 -6 0 -281 135 -611 301 -560 280 -603 300 -639 294 l-39 -7 0 -625 c0 -620 0 -624 20 -618 25 8 25 3 0 -63 -11 -29 -20 -63 -20 -77 0 -41 -18 -28 -25 17 -4 24 -13 54 -20 68 -7 14 -16 36 -20 50 -8 24 -8 24 19 7 l26 -17 0 631 0 631 -37 -6 c-21 -3 -123 -13 -228 -21 -104 -9 -228 -20 -275 -25 -127 -15 -278 -12 -371 6 -90 17 -89 17 -549 -31 -74 -8 -166 -17 -205 -20 -38 -3 -133 -12 -210 -20 -215 -22 -235 -23 -235 -15 0 7 62 15 380 45 91 9 228 22 305 30 77 8 178 17 225 21 124 10 138 18 55 34 -90 17 -121 28 -109 40 9 9 354 51 814 100 107 12 200 22 205 24 15 5 -554 286 -578 286 -12 0 -76 -9 -141 -20 -66 -11 -121 -18 -124 -16 -3 4 77 23 181 44 21 4 39 12 40 17 1 9 -685 363 -705 365 -5 0 -8 -9 -8 -20 0 -11 -3 -20 -7 -20 -5 0 -37 30 -73 66 l-65 67 45 -7 c25 -4 66 -10 93 -13z m-83 -203 c0 -25 4 -30 25 -30 14 0 25 -4 25 -10 0 -5 -11 -10 -25 -10 -21 0 -25 -5 -25 -30 0 -16 -4 -30 -10 -30 -5 0 -10 14 -10 30 0 25 -4 30 -25 30 -14 0 -25 5 -25 10 0 6 11 10 25 10 21 0 25 5 25 30 0 17 5 30 10 30 6 0 10 -13 10 -30z m210 -2 c0 -32 0 -32 -16 -10 -10 15 -25 22 -49 22 l-35 0 45 -74 c25 -40 45 -79 45 -85 0 -8 -20 -11 -62 -9 -57 3 -63 5 -66 26 -4 25 13 30 22 7 5 -13 66 -23 66 -10 0 2 -20 38 -45 78 -25 41 -45 77 -45 81 0 3 32 6 70 6 l70 0 0 -32z m2640 -115 c0 -26 -18 -12 -34 27 -22 55 -20 60 9 20 14 -19 25 -40 25 -47z m620 -443 c0 -23 5 -30 19 -30 11 0 23 -4 26 -10 4 -6 -5 -10 -19 -10 -22 0 -26 -4 -26 -30 0 -16 -4 -30 -10 -30 -5 0 -10 14 -10 30 0 26 -4 30 -26 30 -14 0 -23 4 -19 10 3 6 15 10 26 10 14 0 19 7 19 30 0 17 5 30 10 30 6 0 10 -13 10 -30z m130 20 c0 -5 -5 -10 -11 -10 -5 0 -2 -14 8 -31 l18 -30 22 27 c16 21 19 31 11 41 -8 10 -2 13 31 13 22 0 41 -2 41 -4 0 -2 -18 -23 -40 -47 -22 -24 -40 -49 -40 -55 0 -5 15 -27 34 -47 l34 -37 -37 0 c-23 0 -31 3 -23 9 10 6 11 13 1 34 -7 15 -15 27 -19 27 -12 0 -33 -48 -26 -59 5 -7 -7 -11 -34 -11 l-42 0 36 42 c20 23 36 46 36 52 0 16 -33 64 -56 81 -18 13 -16 14 19 15 20 0 37 -4 37 -10z m-1760 -1261 l25 -7 -27 -1 c-25 -1 -28 -5 -28 -37 0 -21 -4 -33 -10 -29 -5 3 -10 19 -10 36 0 25 -4 29 -27 30 l-28 2 28 4 c22 4 27 9 27 32 0 41 14 48 20 10 4 -25 11 -35 30 -40z m160 61 c0 -5 -4 -10 -10 -10 -29 0 2 -98 48 -152 14 -17 12 -18 -19 -18 -23 0 -30 3 -20 9 11 7 10 15 -5 46 l-18 38 -19 -24 c-11 -13 -17 -33 -14 -46 4 -21 1 -23 -37 -22 -22 0 -36 3 -29 6 18 7 73 107 73 132 0 12 -7 24 -15 27 -28 11 -15 24 25 24 22 0 40 -4 40 -10z"/>
 <path d="M2765 2135 c-104 -19 -273 -48 -375 -65 -102 -17 -219 -37 -260 -45 -41 -7 -129 -23 -195 -34 -302 -53 -470 -83 -473 -86 -2 -2 127 -68 287 -148 l290 -144 158 18 c452 52 829 101 837 109 10 10 9 344 0 398 -6 29 -9 32 -43 31 -20 -1 -121 -16 -226 -34z m80 -135 l0 -35 -84 -12 c-47 -7 -88 -10 -93 -7 -10 6 -10 45 0 60 7 11 129 33 162 30 10 -1 15 -12 15 -36z"/>
 </g>
<g id="layer123" fill="#e7a5a3" stroke="none">
 <path d="M0 1200 l0 -1190 2225 0 2225 0 0 1190 0 1190 -2225 0 -2225 0 0 -1190z m613 1153 c49 -6 55 -11 35 -31 -6 -6 -10 -14 -7 -16 3 -3 175 -89 384 -192 353 -173 381 -186 419 -180 23 4 133 24 246 46 306 59 448 85 735 136 143 25 325 57 405 71 112 20 180 27 296 27 173 1 170 2 230 -92 37 -56 40 -72 23 -103 -8 -16 -7 -30 5 -60 11 -26 16 -67 15 -122 -1 -45 -4 -72 -6 -59 -2 12 -8 22 -12 22 -21 0 -41 66 -51 171 -6 63 -14 123 -17 134 -7 24 -32 55 -46 55 -10 0 -3 -266 10 -377 5 -47 8 -53 35 -58 18 -4 40 -22 59 -47 16 -23 29 -36 29 -30 0 7 11 9 28 6 15 -3 99 2 187 10 88 8 234 22 325 31 246 23 321 32 327 39 3 3 0 13 -8 22 -13 16 -12 17 11 11 14 -3 55 -11 93 -18 37 -7 67 -16 67 -21 0 -4 -8 -8 -17 -8 -10 0 -47 -14 -82 -30 -35 -17 -66 -29 -68 -26 -3 2 1 14 7 26 11 21 10 22 -17 16 -15 -3 -59 -8 -98 -11 -98 -8 -354 -33 -516 -51 -75 -7 -153 -14 -173 -14 -26 0 -38 -5 -42 -17 -3 -10 -9 -25 -13 -33 -12 -23 -134 -45 -346 -64 -104 -10 -253 -23 -330 -31 -77 -8 -182 -17 -234 -21 -51 -3 -104 -9 -117 -13 -19 -5 92 -64 551 -294 316 -158 575 -292 575 -297 0 -6 -5 -10 -11 -10 -6 0 -276 133 -600 295 -536 268 -594 295 -639 295 l-50 0 0 -625 c0 -344 4 -625 8 -625 4 0 13 5 20 12 19 19 15 -13 -8 -72 -11 -28 -20 -62 -20 -75 0 -39 -18 -29 -25 13 -4 20 -16 59 -26 85 -20 49 -19 71 3 49 7 -7 16 -12 20 -12 4 0 8 281 8 625 l0 625 -22 -4 c-13 -3 -84 -10 -158 -16 -74 -6 -205 -18 -290 -26 -202 -20 -346 -19 -445 1 -86 18 -81 18 -545 -30 -74 -8 -166 -17 -205 -20 -38 -3 -133 -12 -210 -20 -215 -22 -235 -23 -235 -15 0 7 62 15 380 45 91 9 228 22 305 30 77 8 179 17 228 21 86 6 119 19 75 28 -13 3 -49 10 -80 16 -57 11 -77 23 -59 34 12 8 231 35 661 81 184 20 342 39 350 42 8 3 -108 66 -265 145 -316 158 -267 146 -473 107 -57 -10 -117 -19 -135 -19 -58 1 -7 18 138 46 119 24 135 29 120 40 -19 14 -691 354 -700 354 -3 0 -5 -9 -5 -20 0 -11 -3 -20 -7 -20 -5 0 -37 30 -73 66 l-65 67 45 -7 c25 -4 66 -10 93 -13z m-83 -203 c0 -25 4 -30 25 -30 14 0 25 -4 25 -10 0 -5 -11 -10 -25 -10 -21 0 -25 -5 -25 -30 0 -16 -4 -30 -10 -30 -5 0 -10 14 -10 30 0 25 -4 30 -25 30 -14 0 -25 5 -25 10 0 6 11 10 25 10 21 0 25 5 25 30 0 17 5 30 10 30 6 0 10 -13 10 -30z m210 -2 c0 -32 0 -32 -16 -10 -10 14 -25 22 -45 22 -16 0 -29 -3 -29 -6 0 -3 18 -36 40 -73 22 -37 40 -73 40 -80 0 -8 -18 -11 -62 -9 -57 3 -63 5 -66 26 -4 26 6 29 22 6 7 -9 23 -14 39 -12 l27 3 -45 75 c-25 41 -45 78 -45 83 0 4 32 7 70 7 l70 0 0 -32z m2667 -460 c-3 -7 -5 -2 -5 12 0 14 2 19 5 13 2 -7 2 -19 0 -25z m593 -98 c0 -26 4 -30 26 -30 16 0 24 -5 22 -12 -3 -7 -13 -13 -24 -13 -14 0 -20 -8 -22 -32 -2 -18 -7 -33 -12 -33 -5 0 -10 15 -12 33 -2 24 -8 32 -22 32 -11 0 -21 6 -24 13 -2 7 6 12 22 12 22 0 26 4 26 30 0 17 5 30 10 30 6 0 10 -13 10 -30z m130 21 c0 -5 -5 -11 -11 -13 -6 -2 -3 -13 9 -28 21 -25 21 -25 36 -5 8 11 13 28 10 38 -4 14 1 17 35 17 23 0 41 -4 41 -10 0 -5 -4 -10 -9 -10 -5 0 -23 -19 -40 -41 -33 -45 -32 -54 13 -101 l25 -28 -36 0 c-28 0 -33 3 -25 13 9 10 7 19 -4 36 l-16 22 -15 -21 c-8 -11 -12 -27 -9 -35 4 -12 -4 -15 -35 -15 l-40 0 37 46 38 46 -20 35 c-10 20 -27 38 -36 41 -31 8 -20 22 17 22 19 0 35 -4 35 -9z m-1764 -1253 c34 -4 35 -22 2 -26 -24 -3 -28 -8 -28 -33 0 -18 -4 -28 -10 -24 -5 3 -10 17 -10 30 0 17 -6 25 -22 27 -32 5 -35 28 -4 28 21 0 26 5 26 23 0 36 15 43 18 9 3 -24 9 -31 28 -34z m162 48 c-10 -7 -18 -25 -18 -40 0 -28 41 -102 68 -123 13 -11 10 -13 -22 -13 -31 0 -36 3 -28 13 8 10 7 21 -4 42 -8 16 -17 31 -19 33 -7 8 -36 -60 -31 -74 4 -11 -5 -14 -37 -14 -35 1 -39 3 -26 13 28 21 71 114 64 137 -3 11 -11 20 -16 20 -5 0 -9 5 -9 10 0 6 21 10 48 10 41 -1 45 -2 30 -14z"/>
 <path d="M2885 2150 c-27 -5 -171 -29 -320 -54 -258 -44 -346 -59 -820 -141 -115 -20 -225 -39 -242 -42 -18 -3 -30 -9 -27 -14 3 -5 129 -70 280 -145 l276 -137 111 12 c62 6 162 18 222 26 61 7 229 28 375 46 146 18 267 34 269 35 4 4 1 268 -4 326 -2 21 -6 51 -10 68 -7 33 -15 35 -110 20z m-35 -149 c0 -43 11 -39 -137 -57 l-53 -7 0 40 0 40 53 10 c28 6 71 11 95 12 l42 1 0 -39z"/>
 </g>
<g id="layer124" fill="#bac6c7" stroke="none">
 <path d="M0 1200 l0 -1190 2225 0 2225 0 0 1190 0 1190 -2225 0 -2225 0 0 -1190z m613 1153 c49 -6 55 -11 35 -31 -6 -6 -10 -14 -7 -16 3 -3 175 -89 384 -192 353 -173 381 -186 419 -180 23 4 133 24 246 46 306 59 448 85 735 136 143 25 325 57 405 71 112 20 180 27 296 27 173 1 170 2 230 -92 37 -56 40 -72 23 -103 -8 -16 -7 -30 5 -60 11 -26 16 -67 15 -122 -1 -45 -4 -72 -6 -59 -2 12 -8 22 -12 22 -21 0 -41 66 -51 171 -6 63 -14 123 -17 134 -7 24 -32 55 -46 55 -10 0 -3 -266 10 -377 5 -47 8 -53 34 -58 16 -4 40 -20 53 -38 13 -17 35 -31 48 -33 23 -1 175 12 473 41 190 19 355 34 373 35 10 0 10 4 0 20 -18 28 -8 31 47 15 26 -8 62 -15 79 -15 17 0 38 -4 45 -9 12 -8 9 -12 -15 -22 -16 -7 -58 -25 -93 -41 l-63 -28 4 25 c6 30 13 30 -170 11 -75 -8 -213 -22 -307 -31 -93 -9 -208 -20 -255 -25 -47 -6 -91 -10 -97 -10 -7 0 -13 -8 -13 -19 0 -10 -6 -23 -12 -29 -23 -18 -159 -40 -348 -57 -102 -9 -248 -23 -325 -30 -77 -8 -182 -17 -234 -21 -51 -3 -104 -9 -117 -13 -19 -5 92 -64 551 -294 316 -158 575 -292 575 -297 0 -6 -5 -10 -11 -10 -6 0 -276 133 -600 295 -536 268 -594 295 -639 295 l-50 0 0 -625 c0 -344 4 -625 8 -625 4 0 13 5 20 12 19 19 15 -13 -8 -72 -11 -28 -20 -62 -20 -75 0 -39 -18 -29 -25 13 -4 20 -16 59 -26 85 -20 49 -19 71 3 49 7 -7 16 -12 20 -12 4 0 8 281 8 625 l0 625 -22 -4 c-13 -3 -84 -10 -158 -16 -74 -6 -205 -18 -290 -26 -180 -18 -342 -19 -419 -4 -74 14 -176 13 -338 -5 -343 -37 -875 -86 -881 -81 -3 3 -3 8 0 11 9 9 265 36 698 75 303 27 350 38 236 55 -66 9 -102 23 -90 35 11 11 176 32 664 85 184 20 342 39 350 42 8 3 -108 66 -265 145 -316 158 -267 146 -473 107 -57 -10 -117 -19 -135 -19 -58 1 -7 18 138 46 119 24 135 29 120 40 -19 14 -691 354 -700 354 -3 0 -5 -9 -5 -20 0 -11 -3 -20 -7 -20 -5 0 -37 30 -73 66 l-65 67 45 -7 c25 -4 66 -10 93 -13z m-83 -203 c0 -25 4 -30 25 -30 14 0 25 -4 25 -10 0 -5 -11 -10 -25 -10 -21 0 -25 -5 -25 -30 0 -16 -4 -30 -10 -30 -5 0 -10 14 -10 30 0 25 -4 30 -25 30 -14 0 -25 5 -25 10 0 6 11 10 25 10 21 0 25 5 25 30 0 17 5 30 10 30 6 0 10 -13 10 -30z m210 -2 c0 -32 0 -32 -16 -10 -10 14 -25 22 -45 22 -16 0 -29 -3 -29 -6 0 -3 18 -36 40 -73 22 -37 40 -73 40 -80 0 -8 -18 -11 -62 -9 -57 3 -63 5 -66 26 -4 26 6 29 22 6 7 -9 23 -14 39 -12 l27 3 -45 75 c-25 41 -45 78 -45 83 0 4 32 7 70 7 l70 0 0 -32z m2667 -460 c-3 -7 -5 -2 -5 12 0 14 2 19 5 13 2 -7 2 -19 0 -25z m593 -98 c0 -26 4 -30 26 -30 16 0 24 -5 22 -12 -3 -7 -13 -13 -24 -13 -14 0 -20 -8 -22 -32 -2 -18 -7 -33 -12 -33 -5 0 -10 15 -12 33 -2 24 -8 32 -22 32 -11 0 -21 6 -24 13 -2 7 6 12 22 12 22 0 26 4 26 30 0 17 5 30 10 30 6 0 10 -13 10 -30z m130 21 c0 -5 -5 -11 -11 -13 -6 -2 -3 -13 9 -28 21 -25 21 -25 36 -5 8 11 13 28 10 38 -4 14 1 17 35 17 23 0 41 -4 41 -10 0 -5 -4 -10 -9 -10 -5 0 -23 -19 -40 -41 -33 -45 -32 -54 13 -101 l25 -28 -36 0 c-28 0 -33 3 -25 13 9 10 7 19 -4 36 l-16 22 -15 -21 c-8 -11 -12 -27 -9 -35 4 -12 -4 -15 -35 -15 l-40 0 37 46 38 46 -20 35 c-10 20 -27 38 -36 41 -31 8 -20 22 17 22 19 0 35 -4 35 -9z m-1764 -1253 c34 -4 35 -22 2 -26 -24 -3 -28 -8 -28 -33 0 -18 -4 -28 -10 -24 -5 3 -10 17 -10 30 0 17 -6 25 -22 27 -32 5 -35 28 -4 28 21 0 26 5 26 23 0 36 15 43 18 9 3 -24 9 -31 28 -34z m162 48 c-10 -7 -18 -25 -18 -40 0 -28 41 -102 68 -123 13 -11 10 -13 -22 -13 -31 0 -36 3 -28 13 8 10 7 21 -4 42 -8 16 -17 31 -19 33 -7 8 -36 -60 -31 -74 4 -11 -5 -14 -37 -14 -35 1 -39 3 -26 13 28 21 71 114 64 137 -3 11 -11 20 -16 20 -5 0 -9 5 -9 10 0 6 21 10 48 10 41 -1 45 -2 30 -14z"/>
 <path d="M2885 2150 c-27 -5 -171 -29 -320 -54 -258 -44 -346 -59 -820 -141 -115 -20 -225 -39 -242 -42 -18 -3 -30 -9 -27 -14 3 -5 129 -70 280 -145 l276 -137 111 12 c62 6 162 18 222 26 61 7 229 28 375 46 146 18 267 34 269 35 4 4 1 268 -4 326 -2 21 -6 51 -10 68 -7 33 -15 35 -110 20z m-35 -149 c0 -43 11 -39 -137 -57 l-53 -7 0 40 0 40 53 10 c28 6 71 11 95 12 l42 1 0 -39z"/>
 </g>
<g id="layer125" fill="#cfcfd0" stroke="none">
 <path d="M0 1200 l0 -1190 2225 0 2225 0 0 1190 0 1190 -2225 0 -2225 0 0 -1190z m560 1159 c19 -5 50 -9 68 -9 34 0 40 -8 20 -28 -6 -6 -10 -14 -7 -16 3 -3 167 -85 364 -183 337 -166 364 -177 415 -176 30 0 174 25 320 56 222 47 420 84 785 147 28 5 127 23 220 40 178 32 418 49 508 36 37 -6 57 -16 88 -47 35 -34 41 -47 46 -94 4 -34 2 -60 -6 -68 -8 -11 -8 -23 4 -50 9 -21 17 -89 21 -171 4 -75 10 -139 14 -141 6 -4 137 8 465 40 190 19 355 34 373 35 10 0 10 4 0 20 -18 28 -8 31 47 15 26 -8 62 -15 79 -15 17 0 38 -4 45 -9 12 -8 9 -12 -15 -22 -16 -7 -58 -25 -93 -41 l-63 -28 4 25 c6 30 13 30 -170 11 -75 -8 -213 -22 -307 -31 -93 -9 -208 -20 -255 -25 -47 -6 -91 -10 -97 -10 -7 0 -13 -11 -13 -25 0 -45 -76 -57 -730 -115 -129 -11 -257 -24 -283 -28 l-48 -7 576 -288 c316 -158 575 -292 575 -297 0 -6 -5 -10 -11 -10 -6 0 -276 133 -600 295 -536 268 -594 295 -639 295 l-50 0 0 -625 0 -626 21 11 c30 17 33 7 11 -43 -11 -25 -23 -63 -27 -86 -8 -51 -22 -53 -31 -3 -4 20 -15 59 -26 86 -19 49 -17 69 4 48 7 -7 16 -12 20 -12 4 0 8 280 8 621 l0 622 -77 -6 c-43 -4 -206 -18 -363 -31 -234 -21 -300 -23 -370 -15 -170 20 -256 21 -406 5 -371 -40 -886 -87 -892 -82 -3 3 -3 9 0 12 6 6 234 31 528 58 219 21 474 47 477 50 2 2 -33 10 -77 20 -130 28 -115 46 55 65 55 6 272 31 483 55 210 23 384 45 387 48 3 3 -118 66 -269 141 l-273 137 -169 -30 c-93 -17 -179 -32 -191 -34 -13 -2 -23 1 -23 6 0 15 60 35 175 58 145 28 142 27 114 48 -22 17 -663 342 -674 342 -3 0 -5 -9 -5 -20 0 -11 -3 -20 -7 -20 -5 0 -39 32 -78 71 -76 76 -77 74 25 48z m-30 -209 c0 -25 4 -30 24 -30 14 0 28 -4 31 -10 4 -6 -7 -10 -24 -10 -29 0 -31 -3 -31 -36 0 -21 -4 -33 -10 -29 -5 3 -10 19 -10 36 0 24 -4 29 -25 29 -14 0 -25 5 -25 10 0 6 11 10 25 10 21 0 25 5 25 30 0 17 5 30 10 30 6 0 10 -13 10 -30z m209 -2 c0 -33 0 -33 -16 -10 -10 14 -26 22 -44 22 -16 0 -29 -3 -29 -6 0 -4 20 -40 45 -81 25 -40 45 -76 45 -78 0 -3 -31 -5 -70 -5 -68 0 -70 1 -70 25 0 29 8 32 24 9 7 -9 23 -14 38 -12 l26 3 -44 75 c-24 41 -44 78 -44 82 0 5 32 8 70 8 l70 0 -1 -32z m3261 -558 c0 -25 4 -30 25 -30 16 0 25 -6 25 -15 0 -9 -9 -15 -25 -15 -21 0 -25 -5 -25 -30 0 -16 -4 -30 -10 -30 -5 0 -10 13 -10 29 0 25 -4 30 -27 33 -34 4 -33 22 2 26 20 3 25 9 25 33 0 16 5 29 10 29 6 0 10 -13 10 -30z m130 21 c0 -5 -5 -11 -11 -13 -6 -2 -3 -13 9 -28 21 -25 21 -25 36 -5 8 11 13 28 10 38 -4 14 1 17 35 17 23 0 41 -4 41 -10 0 -5 -4 -10 -8 -10 -5 0 -23 -20 -40 -44 l-32 -44 22 -28 c13 -16 29 -34 38 -41 12 -10 8 -12 -24 -13 -31 0 -36 3 -28 13 9 10 7 19 -4 36 l-16 22 -15 -21 c-8 -11 -12 -27 -9 -35 4 -12 -4 -15 -35 -15 l-40 0 37 45 37 46 -19 36 c-10 19 -27 38 -36 41 -31 8 -20 22 17 22 19 0 35 -4 35 -9z m-1790 -1220 c0 -24 5 -30 25 -33 14 -2 26 -7 26 -13 0 -5 -12 -11 -26 -13 -20 -3 -25 -9 -25 -33 0 -16 -4 -29 -10 -29 -5 0 -10 14 -10 30 0 25 -4 30 -25 30 -16 0 -25 6 -25 15 0 9 9 15 25 15 21 0 25 5 25 30 0 17 5 30 10 30 6 0 10 -13 10 -29z m188 15 c-10 -7 -18 -23 -18 -35 0 -28 34 -95 62 -121 23 -21 22 -22 -17 -22 -37 0 -38 1 -27 15 7 8 5 22 -8 46 l-17 35 -17 -33 c-9 -17 -15 -40 -12 -49 5 -15 -1 -17 -34 -17 -43 0 -49 5 -24 26 44 36 77 149 43 149 -5 0 -9 5 -9 10 0 6 21 10 48 10 41 -1 45 -2 30 -14z"/>
 <path d="M2355 2053 c-33 -8 -69 -14 -80 -14 -11 0 -137 -20 -280 -45 -143 -24 -318 -54 -388 -66 -70 -12 -124 -24 -120 -28 10 -9 222 -120 406 -213 l138 -69 132 16 c190 23 272 34 447 58 85 11 163 20 173 20 9 0 17 6 17 13 0 9 -6 12 -15 9 -8 -4 -15 -2 -15 3 0 15 -28 11 -34 -4 -3 -7 -10 -13 -16 -13 -6 0 -4 7 4 16 9 8 16 25 16 38 0 15 9 26 28 34 15 6 18 9 6 7 -14 -4 -27 4 -42 25 -12 16 -22 35 -21 42 0 7 4 4 9 -7 9 -20 9 -20 9 0 1 12 -11 28 -26 37 l-28 17 28 1 c16 0 26 -4 22 -10 -3 -5 -2 -10 4 -10 5 0 14 6 18 14 4 8 19 16 33 19 14 3 -4 3 -40 0 -36 -3 -68 -10 -72 -17 -5 -7 -8 -4 -8 8 0 11 -3 16 -7 13 -3 -4 -12 1 -19 11 -19 24 -17 37 3 21 15 -13 16 -12 11 9 -4 12 -2 22 3 22 5 0 9 5 9 11 0 8 -5 8 -15 -1 -19 -16 -49 -5 -41 15 3 9 -3 19 -14 25 -12 6 -20 7 -20 1 0 -5 -25 -11 -55 -13 -30 -1 -55 0 -55 4 0 15 -30 -5 -31 -21 0 -12 -2 -11 -8 4 -5 11 -7 23 -4 28 2 4 3 7 1 6 -2 -1 -30 -8 -63 -16z m239 -18 c-4 -8 -10 -15 -15 -15 -5 0 -9 7 -9 15 0 8 7 15 15 15 9 0 12 -6 9 -15z m66 -147 c0 -19 -2 -20 -10 -8 -13 19 -13 30 0 30 6 0 10 -10 10 -22z m37 5 c-4 -3 -7 0 -7 7 0 7 3 10 7 7 3 -4 3 -10 0 -14z"/>
 <path d="M2853 2000 c0 -25 2 -35 4 -22 2 12 2 32 0 45 -2 12 -4 2 -4 -23z"/>
 <path d="M3304 1863 c3 -91 2 -123 -7 -124 -7 0 -3 -4 8 -9 31 -13 36 -12 31 13 -3 12 -7 53 -11 90 -14 175 -29 194 -21 30z"/>
 <path d="M2740 1885 c0 -7 8 -19 17 -26 14 -12 15 -12 9 0 -5 8 -4 16 4 21 8 5 5 9 -9 13 -13 3 -21 0 -21 -8z"/>
 <path d="M2750 1774 c0 -2 9 -8 20 -14 11 -6 20 -7 20 -2 0 6 -9 12 -20 15 -11 3 -20 3 -20 1z"/>
 <path d="M2815 1730 c-3 -5 1 -10 10 -10 9 0 13 5 10 10 -3 6 -8 10 -10 10 -2 0 -7 -4 -10 -10z"/>
 </g>
<g id="layer126" fill="#d5d9ea" stroke="none">
 <path d="M0 1200 l0 -1190 2225 0 2225 0 0 1190 0 1190 -2225 0 -2225 0 0 -1190z m560 1159 c19 -5 50 -9 68 -9 34 0 40 -8 20 -28 -6 -6 -10 -14 -7 -16 3 -3 161 -82 351 -176 222 -109 357 -170 377 -170 17 0 111 18 209 39 467 104 1061 212 1332 242 224 25 310 22 402 -15 l67 -28 6 -64 c4 -35 4 -84 1 -109 -4 -24 -3 -52 2 -62 6 -10 15 -83 21 -162 7 -80 13 -146 14 -147 3 -3 174 13 462 41 190 19 355 34 373 35 10 0 10 4 0 20 -18 28 -8 31 47 15 26 -8 61 -15 76 -15 32 0 59 -9 59 -19 0 -5 -19 -14 -42 -21 -24 -7 -65 -23 -92 -37 l-49 -25 5 26 c6 31 13 31 -170 12 -75 -8 -213 -22 -307 -31 -93 -9 -208 -20 -255 -25 -47 -6 -91 -10 -97 -10 -7 0 -13 -11 -13 -24 0 -47 -53 -56 -700 -116 -124 -11 -255 -24 -293 -28 l-67 -7 575 -288 c316 -158 575 -292 575 -297 0 -6 -5 -10 -11 -10 -6 0 -276 133 -600 295 -346 173 -601 295 -617 295 -15 0 -37 -3 -49 -6 l-23 -6 0 -620 0 -619 21 11 c30 17 32 8 9 -49 -11 -28 -20 -58 -20 -66 0 -7 -5 -26 -11 -42 -11 -27 -12 -26 -29 37 -9 36 -23 77 -30 93 -16 33 -9 43 19 27 l21 -11 0 621 0 620 -24 0 c-13 0 -90 -6 -172 -14 -464 -45 -540 -49 -631 -36 -149 21 -236 23 -390 6 -81 -9 -175 -18 -208 -21 -63 -6 -228 -22 -508 -51 -151 -16 -192 -15 -175 2 6 5 236 31 523 59 94 9 242 23 329 32 l160 17 -75 16 c-115 24 -127 39 -51 61 26 7 39 15 30 17 -14 3 -18 14 -18 50 -2 139 -8 270 -13 279 -8 12 -14 10 185 55 l147 33 -32 21 c-33 22 -632 324 -642 324 -3 0 -5 -9 -5 -20 0 -11 -3 -20 -7 -20 -5 0 -39 32 -78 71 -76 76 -77 74 25 48z m-30 -208 c0 -24 5 -30 25 -33 14 -2 26 -7 26 -13 0 -5 -12 -11 -26 -13 -20 -3 -25 -9 -25 -33 0 -16 -4 -29 -10 -29 -5 0 -10 14 -10 30 0 25 -4 30 -25 30 -16 0 -25 6 -25 15 0 9 9 15 25 15 21 0 25 5 25 30 0 17 5 30 10 30 6 0 10 -13 10 -29z m209 -3 c0 -33 0 -33 -16 -10 -10 14 -26 22 -44 22 -16 0 -29 -2 -29 -5 0 -2 20 -38 45 -78 25 -41 45 -77 45 -81 0 -3 -31 -6 -70 -6 l-70 0 0 32 0 32 20 -22 c19 -20 77 -33 67 -14 -3 4 -23 37 -46 75 -22 37 -41 72 -41 77 0 6 31 10 70 10 l70 0 -1 -32z m3261 -557 c0 -24 5 -30 25 -33 14 -2 26 -7 26 -13 0 -5 -12 -11 -26 -13 -20 -3 -25 -9 -25 -33 0 -16 -4 -29 -10 -29 -5 0 -10 13 -10 29 0 25 -4 30 -27 33 -34 4 -33 22 2 26 20 3 25 9 25 33 0 16 5 29 10 29 6 0 10 -13 10 -29z m131 15 c-9 -11 -10 -20 -1 -35 6 -12 14 -21 18 -21 13 0 32 39 26 55 -5 12 2 15 35 15 23 0 41 -4 41 -10 0 -5 -4 -10 -8 -10 -5 0 -23 -20 -40 -44 l-32 -44 35 -37 c39 -42 39 -51 1 -50 -31 2 -45 13 -28 24 9 5 9 12 -3 27 -14 18 -16 18 -29 1 -8 -10 -12 -26 -9 -35 3 -14 -3 -17 -36 -17 -27 0 -41 4 -41 12 0 7 4 13 9 13 4 0 21 18 36 40 l28 40 -27 35 c-15 19 -31 35 -37 35 -5 0 -9 5 -9 10 0 6 19 10 41 10 35 0 40 -2 30 -14z m-1791 -1215 c0 -24 5 -30 25 -33 14 -2 26 -7 26 -13 0 -5 -12 -11 -26 -13 -20 -3 -25 -9 -25 -33 0 -16 -4 -29 -10 -29 -5 0 -10 14 -10 30 0 25 -4 30 -25 30 -16 0 -25 6 -25 15 0 9 9 15 25 15 21 0 25 5 25 30 0 17 5 30 10 30 6 0 10 -13 10 -29z m200 19 c0 -5 -7 -10 -15 -10 -25 0 -18 -52 14 -102 16 -25 34 -49 40 -52 21 -14 11 -24 -24 -24 -36 0 -42 6 -26 24 6 5 3 22 -9 43 l-17 35 -17 -33 c-14 -25 -15 -36 -5 -47 14 -17 15 -16 -38 -19 -30 -2 -43 1 -43 10 0 7 7 15 15 18 34 14 75 147 45 147 -5 0 -10 5 -10 10 0 6 20 10 45 10 25 0 45 -4 45 -10z"/>
 <path d="M1540 1630 c0 -7 3 -10 7 -7 3 4 3 10 0 14 -4 3 -7 0 -7 -7z"/>
 <path d="M1446 1622 c-2 -4 -1 -14 3 -21 6 -9 11 -10 15 -2 4 6 2 11 -4 11 -6 0 -8 5 -5 10 3 6 4 10 1 10 -3 0 -7 -4 -10 -8z"/>
 <path d="M1490 1613 c-10 -12 -11 -18 -2 -21 7 -2 10 -8 6 -13 -7 -12 27 -11 46 2 12 8 10 9 -9 7 -14 -2 -26 3 -29 11 -3 10 0 12 11 8 11 -4 14 -2 10 9 -7 18 -14 17 -33 -3z"/>
 <path d="M1625 1620 c3 -5 8 -10 11 -10 3 0 2 5 -1 10 -3 6 -8 10 -11 10 -3 0 -2 -4 1 -10z"/>
 <path d="M1560 1610 c0 -7 3 -10 7 -7 3 4 3 10 0 14 -4 3 -7 0 -7 -7z"/>
 <path d="M1293 1603 c4 -3 10 -3 14 0 3 4 0 7 -7 7 -7 0 -10 -3 -7 -7z"/>
 <path d="M1360 1585 c0 -14 4 -25 9 -25 5 0 8 11 7 25 -1 33 -16 33 -16 0z"/>
 <path d="M1410 1574 c0 -17 22 -14 28 4 2 7 -3 12 -12 12 -9 0 -16 -7 -16 -16z"/>
 <path d="M1455 1570 c3 -5 8 -10 11 -10 3 0 2 5 -1 10 -3 6 -8 10 -11 10 -3 0 -2 -4 1 -10z"/>
 <path d="M1091 1549 c-1 -9 -17 -20 -38 -26 l-38 -11 39 4 c47 5 49 7 43 31 -3 13 -5 14 -6 2z"/>
 <path d="M1170 1540 c0 -7 3 -10 7 -7 3 4 3 10 0 14 -4 3 -7 0 -7 -7z"/>
 </g>
<g id="layer127" fill="#ebdada" stroke="none">
 <path d="M0 1200 l0 -1190 2225 0 2225 0 0 1190 0 1190 -2225 0 -2225 0 0 -1190z m584 1163 c6 -4 23 -6 38 -4 38 4 50 -6 38 -29 -10 -18 12 -31 250 -150 297 -148 458 -223 469 -216 8 5 48 14 93 21 15 2 45 9 68 15 23 6 53 13 68 15 15 2 34 6 42 9 8 3 33 8 54 11 22 3 46 11 55 18 12 10 13 9 6 -3 -8 -13 -7 -13 8 -1 9 7 17 10 17 5 0 -5 4 -4 8 2 9 15 57 30 48 16 -10 -16 20 -8 38 11 21 20 33 23 17 3 -9 -11 -6 -12 15 -8 19 3 22 7 12 13 -7 5 -11 9 -8 9 3 0 20 4 38 9 37 11 43 5 10 -9 -20 -8 -20 -9 7 -6 17 3 37 5 45 6 11 1 9 4 -5 11 -15 7 -10 8 18 3 24 -3 37 -2 33 4 -4 6 3 8 16 4 14 -3 19 -2 14 6 -4 7 -2 12 3 12 6 0 11 -4 11 -9 0 -12 123 18 132 32 4 7 8 8 8 2 0 -14 45 -12 62 3 8 6 25 9 39 6 17 -4 20 -3 10 4 -10 7 -4 11 23 14 20 2 37 -1 40 -7 2 -6 11 -6 25 3 15 9 21 9 21 1 0 -9 4 -9 14 0 7 6 40 13 72 16 33 3 70 8 84 11 14 3 42 7 63 8 21 2 40 6 44 10 3 3 19 6 34 6 15 0 39 4 53 10 19 7 26 6 26 -3 1 -8 5 -7 13 3 7 9 31 16 57 17 24 1 46 6 48 12 2 6 8 9 13 5 5 -3 26 0 47 7 50 17 150 18 157 2 2 -7 13 -13 23 -13 11 0 25 -7 32 -15 7 -9 15 -13 18 -11 3 3 17 -1 31 -9 14 -8 38 -19 53 -24 24 -9 27 -16 33 -76 4 -36 4 -88 1 -116 -4 -29 -2 -57 4 -69 6 -11 15 -84 21 -162 5 -78 11 -143 12 -145 3 -2 179 14 462 42 190 19 355 34 373 35 10 0 10 4 0 20 -18 28 -8 31 47 15 26 -8 61 -15 76 -15 32 0 59 -9 59 -19 0 -5 -19 -14 -42 -21 -24 -7 -65 -23 -92 -37 l-49 -25 5 26 c6 31 13 31 -170 12 -75 -8 -213 -22 -307 -31 -93 -9 -208 -20 -255 -25 -47 -6 -91 -10 -97 -10 -7 0 -13 -11 -13 -24 0 -47 -51 -55 -700 -116 -124 -12 -252 -24 -284 -28 l-59 -7 564 -284 c310 -156 566 -285 568 -287 2 -2 1 -10 -2 -19 -5 -12 -128 46 -608 286 -580 290 -604 301 -646 294 l-43 -6 0 -620 0 -620 21 11 c29 16 33 8 16 -31 -8 -19 -20 -58 -26 -87 -7 -28 -16 -54 -20 -57 -5 -2 -14 21 -21 53 -7 31 -19 71 -28 89 -18 38 -12 49 17 33 l21 -11 0 621 c0 595 -1 620 -18 620 -11 0 -88 -6 -173 -14 -527 -49 -559 -51 -670 -33 -126 21 -196 21 -359 3 -69 -8 -156 -17 -195 -20 -66 -6 -122 -11 -518 -52 -151 -16 -192 -15 -175 2 6 5 236 31 523 59 94 9 242 23 329 32 l159 17 -64 13 c-118 23 -112 13 -104 166 8 172 12 195 36 208 19 10 19 12 5 28 -27 30 -18 38 52 50 37 6 78 13 92 16 14 3 34 7 45 10 11 2 20 4 20 5 0 5 45 12 82 13 l42 1 -72 39 c-40 21 -192 98 -339 172 -266 135 -267 135 -270 108 -3 -26 -6 -24 -75 44 -40 38 -73 73 -73 76 0 8 99 -1 114 -10z m-54 -212 c0 -24 5 -30 25 -33 14 -2 26 -7 26 -13 0 -5 -12 -11 -26 -13 -20 -3 -25 -9 -25 -33 0 -16 -4 -29 -10 -29 -5 0 -10 14 -10 30 0 25 -4 30 -25 30 -16 0 -25 6 -25 15 0 9 9 15 25 15 21 0 25 5 25 30 0 17 5 30 10 30 6 0 10 -13 10 -29z m209 -3 c0 -33 0 -33 -16 -10 -10 14 -26 22 -44 22 -16 0 -29 -2 -29 -5 0 -2 20 -38 45 -78 25 -41 45 -77 45 -81 0 -3 -31 -6 -70 -6 l-70 0 0 32 0 32 20 -22 c19 -20 77 -33 67 -14 -3 4 -23 37 -46 75 -22 37 -41 72 -41 77 0 6 31 10 70 10 l70 0 -1 -32z m1488 15 c-4 -3 -10 -3 -14 0 -3 4 0 7 7 7 7 0 10 -3 7 -7z m-30 -10 c-4 -3 -10 -3 -14 0 -3 4 0 7 7 7 7 0 10 -3 7 -7z m-50 -10 c-4 -3 -10 -3 -14 0 -3 4 0 7 7 7 7 0 10 -3 7 -7z m1853 -552 c0 -24 5 -30 25 -33 14 -2 26 -7 26 -13 0 -5 -12 -11 -26 -13 -20 -3 -25 -9 -25 -33 0 -16 -4 -29 -10 -29 -5 0 -10 13 -10 29 0 25 -4 30 -27 33 -34 4 -33 22 2 26 20 3 25 9 25 33 0 16 5 29 10 29 6 0 10 -13 10 -29z m131 15 c-9 -11 -10 -20 -1 -35 6 -12 14 -21 18 -21 13 0 32 39 26 55 -5 12 2 15 35 15 23 0 41 -4 41 -10 0 -5 -4 -10 -8 -10 -5 0 -23 -20 -40 -44 l-32 -44 35 -37 c39 -42 39 -51 1 -50 -31 2 -45 13 -28 24 9 5 9 12 -3 27 -14 18 -16 18 -29 1 -8 -10 -12 -26 -9 -35 3 -14 -3 -17 -36 -17 -27 0 -41 4 -41 12 0 7 4 13 9 13 4 0 21 18 36 40 l28 40 -27 35 c-15 19 -31 35 -37 35 -5 0 -9 5 -9 10 0 6 19 10 41 10 35 0 40 -2 30 -14z m-1791 -1215 c0 -24 5 -30 25 -33 14 -2 26 -7 26 -13 0 -5 -12 -11 -26 -13 -20 -3 -25 -9 -25 -33 0 -16 -4 -29 -10 -29 -5 0 -10 14 -10 30 0 25 -4 30 -25 30 -16 0 -25 6 -25 15 0 9 9 15 25 15 21 0 25 5 25 30 0 17 5 30 10 30 6 0 10 -13 10 -29z m200 19 c0 -5 -7 -10 -15 -10 -25 0 -18 -52 14 -102 16 -25 34 -49 40 -52 21 -14 11 -24 -24 -24 -22 0 -35 5 -35 13 0 7 4 15 9 17 5 2 1 18 -9 37 l-17 35 -17 -33 c-14 -25 -15 -36 -5 -47 14 -17 15 -16 -38 -19 -30 -2 -43 1 -43 10 0 7 7 15 15 18 34 14 75 147 45 147 -5 0 -10 5 -10 10 0 6 20 10 45 10 25 0 45 -4 45 -10z"/>
 <path d="M3163 2283 c4 -3 10 -3 14 0 3 4 0 7 -7 7 -7 0 -10 -3 -7 -7z"/>
 <path d="M960 1710 c0 -7 3 -10 7 -7 3 4 3 10 0 14 -4 3 -7 0 -7 -7z"/>
 <path d="M952 1675 c-7 -8 -12 -27 -12 -42 1 -16 -1 -54 -3 -85 -4 -57 -2 -65 18 -50 13 8 13 121 0 141 -5 9 -4 12 2 8 6 -4 11 4 11 18 0 14 -1 25 -2 25 0 -1 -7 -7 -14 -15z"/>
 </g>
<g id="layer128" fill="#fefefe" stroke="none">
 <path d="M0 1200 l0 -1190 2225 0 2225 0 0 1190 0 1190 -2225 0 -2225 0 0 -1190z m584 1163 c6 -4 23 -6 38 -4 38 4 50 -6 38 -29 -10 -18 13 -31 257 -153 148 -74 296 -146 330 -162 l61 -27 79 25 c43 13 123 38 178 55 55 16 127 38 160 48 33 10 65 19 70 20 6 1 49 11 95 23 47 11 139 27 205 36 66 8 145 20 175 25 30 6 82 14 115 20 33 5 137 26 230 45 94 20 197 40 230 46 33 5 71 12 85 14 127 23 160 27 212 21 54 -5 124 -38 210 -98 24 -17 27 -28 38 -135 7 -67 7 -100 -1 -115 -8 -15 -8 -27 1 -47 7 -14 17 -90 23 -168 10 -135 12 -143 31 -143 12 0 91 7 176 15 248 24 469 45 545 52 61 5 125 22 88 23 -7 0 -13 7 -13 16 0 12 7 15 28 11 143 -25 172 -32 172 -43 0 -7 -17 -18 -37 -25 -21 -6 -60 -23 -86 -36 -52 -26 -68 -24 -60 6 4 17 0 19 -34 15 -21 -2 -112 -11 -203 -19 -167 -15 -271 -26 -480 -49 -94 -10 -115 -15 -112 -28 8 -52 -37 -59 -967 -145 l-84 -8 564 -284 c310 -156 566 -285 568 -287 2 -2 1 -10 -2 -19 -5 -12 -128 46 -606 285 -583 291 -602 300 -646 293 l-45 -6 0 -614 0 -613 25 6 c29 7 32 -4 11 -44 -7 -15 -19 -53 -26 -84 -7 -32 -17 -58 -21 -58 -4 0 -13 24 -20 53 -6 28 -18 66 -26 84 -7 18 -13 40 -13 49 0 15 2 15 25 0 l25 -16 0 619 0 620 -47 -4 c-27 -3 -131 -12 -233 -20 -102 -9 -229 -20 -283 -25 -138 -14 -231 -12 -333 6 -96 17 -112 16 -444 -16 -107 -11 -271 -27 -365 -36 -93 -8 -223 -21 -287 -28 -112 -12 -118 -11 -118 6 0 10 5 18 11 18 6 0 52 4 102 10 51 5 166 16 257 25 91 9 228 22 305 30 77 8 181 18 230 22 82 6 87 7 50 15 -22 5 -57 13 -77 19 l-38 10 1 87 c1 159 13 253 32 263 15 9 16 12 1 34 -18 28 -15 57 6 61 8 2 61 12 116 23 193 38 209 16 -144 194 -311 157 -311 157 -314 130 -3 -26 -5 -24 -75 44 -40 38 -73 73 -73 76 0 8 99 -1 114 -10z m-23 -243 c38 0 34 -24 -4 -28 -22 -3 -27 -8 -27 -33 0 -16 -4 -29 -10 -29 -5 0 -10 14 -10 30 0 25 -4 30 -25 30 -16 0 -25 6 -25 15 0 9 9 15 25 15 21 0 25 5 25 28 0 43 15 49 18 8 3 -33 6 -36 33 -36z m172 63 c2 -5 7 -20 11 -35 5 -21 3 -28 -9 -28 -8 0 -15 7 -15 15 0 14 -40 30 -59 23 -6 -1 10 -37 34 -78 25 -41 45 -78 45 -82 0 -5 -31 -8 -70 -8 l-70 0 0 30 c0 34 7 38 24 14 7 -9 22 -14 34 -12 21 3 21 5 -18 68 -56 93 -55 100 24 100 36 0 67 -3 69 -7z m3403 -564 c3 -6 1 -15 -6 -19 -10 -6 -9 -12 3 -30 l15 -21 16 22 c10 15 12 27 6 34 -14 17 -1 25 41 25 40 0 58 -13 36 -27 -7 -4 -27 -26 -44 -49 l-32 -41 34 -38 c19 -21 35 -41 35 -46 0 -5 -16 -9 -35 -9 -24 0 -35 5 -35 14 0 8 4 16 9 18 5 2 3 12 -5 23 -15 20 -15 20 -29 1 -10 -13 -11 -23 -5 -31 14 -17 2 -25 -41 -25 -39 0 -61 16 -35 26 8 3 26 23 40 45 l27 40 -27 34 c-14 19 -30 35 -35 35 -5 0 -9 7 -9 15 0 18 65 21 76 4z m-136 -28 c0 -24 5 -30 25 -33 14 -2 26 -7 26 -13 0 -5 -12 -11 -26 -13 -20 -3 -25 -9 -25 -33 0 -16 -4 -29 -10 -29 -5 0 -10 14 -10 30 0 27 -3 30 -30 30 -20 0 -30 5 -30 15 0 10 10 15 30 15 27 0 30 3 30 30 0 17 5 30 10 30 6 0 10 -13 10 -29z m-1463 -1174 c4 -5 0 -13 -10 -18 -9 -6 -17 -20 -17 -32 0 -25 55 -117 70 -117 6 0 10 -7 10 -15 0 -11 -11 -15 -36 -15 -34 0 -35 1 -30 28 4 17 1 35 -7 46 -14 19 -15 18 -32 -8 -14 -20 -15 -30 -6 -39 20 -20 12 -27 -33 -27 -46 0 -70 15 -41 26 23 9 65 86 65 121 0 19 -6 33 -16 37 -8 3 -13 10 -9 15 6 11 80 9 92 -2z m-197 -27 c0 -27 3 -30 30 -30 20 0 30 -5 30 -15 0 -10 -10 -15 -30 -15 -27 0 -30 -3 -30 -30 0 -16 -4 -30 -10 -30 -5 0 -10 13 -10 29 0 25 -4 30 -27 33 -34 4 -33 22 2 26 20 3 25 9 25 33 0 16 5 29 10 29 6 0 10 -13 10 -30z"/>
 </g>

</svg>