<?xml version="1.0" encoding="UTF-8" standalone="no"?>
<!DOCTYPE svg PUBLIC "-//W3C//DTD SVG 1.1//EN" "http://www.w3.org/Graphics/SVG/1.1/DTD/svg11.dtd">
<!-- Generated by Microsoft Visio, SVG Export Figure1.2.svg Page-1 -->
<svg xmlns="http://www.w3.org/2000/svg" xmlns:xlink="http://www.w3.org/1999/xlink" xmlns:ev="http://www.w3.org/2001/xml-events"
		xmlns:v="http://schemas.microsoft.com/visio/2003/SVGExtensions/" width="11.6929in" height="8.26772in"
		viewBox="0 0 841.89 595.276" xml:space="preserve" color-interpolation-filters="sRGB" class="st9">
	<v:documentProperties v:langID="1033" v:metric="true" v:viewMarkup="false">
		<v:userDefs>
			<v:ud v:nameU="msvSubprocessMaster" v:prompt="" v:val="VT4(Rectangle)"/>
			<v:ud v:nameU="msvNoAutoConnect" v:val="VT0(1):26"/>
		</v:userDefs>
	</v:documentProperties>

	<style type="text/css">
	<![CDATA[
		.st1 {fill:#ffffff;stroke:#000000;stroke-width:0.75}
		.st2 {fill:#000000;font-family:Calibri;font-size:1.00001em}
		.st3 {font-size:1em}
		.st4 {marker-end:url(#mrkr4-13);stroke:#000000;stroke-linecap:round;stroke-linejoin:round;stroke-width:0.5}
		.st5 {fill:#000000;fill-opacity:1;stroke:#000000;stroke-opacity:1;stroke-width:0.16556291390728}
		.st6 {fill:#ffffff;stroke:#000000;stroke-dasharray:0.75,1.5;stroke-width:0.75}
		.st7 {stroke:#000000;stroke-linecap:round;stroke-linejoin:round;stroke-width:0.5}
		.st8 {fill:#ffffff;stroke:none;stroke-width:0.25}
		.st9 {fill:none;fill-rule:evenodd;font-size:12px;overflow:visible;stroke-linecap:square;stroke-miterlimit:3}
	]]>
	</style>

	<defs id="Markers">
		<g id="lend4">
			<path d="M 2 1 L 0 0 L 2 -1 L 2 1 " style="stroke:none"/>
		</g>
		<marker id="mrkr4-13" class="st5" v:arrowType="4" v:arrowSize="2" v:setback="12.08" refX="-12.08" orient="auto"
				markerUnits="strokeWidth" overflow="visible">
			<use xlink:href="#lend4" transform="scale(-6.04,-6.04) "/>
		</marker>
	</defs>
	<g v:mID="0" v:index="1" v:groupContext="foregroundPage">
		<v:userDefs>
			<v:ud v:nameU="msvThemeOrder" v:val="VT0(0):26"/>
		</v:userDefs>
		<title>Page-1</title>
		<v:pageProperties v:drawingScale="0.0393701" v:pageScale="0.0393701" v:drawingUnits="24" v:shadowOffsetX="8.50394"
				v:shadowOffsetY="-8.50394"/>
		<v:layer v:name="Connector" v:index="0"/>
		<g id="shape1-1" v:mID="1" v:groupContext="shape" transform="translate(28.3465,-473.386)">
			<title>Rectangle</title>
			<desc>Knowledge flows</desc>
			<v:userDefs>
				<v:ud v:nameU="visVersion" v:val="VT0(15):26"/>
			</v:userDefs>
			<v:textBlock v:margins="rect(4,4,4,4)" v:tabSpace="42.5197"/>
			<v:textRect cx="56.6929" cy="552.756" width="113.39" height="85.0394"/>
			<rect x="0" y="510.236" width="113.386" height="85.0394" class="st1"/>
			<text x="15.28" y="556.36" class="st2" v:langID="1033"><v:paragraph v:horizAlign="1"/><v:tabList/>Knowledge flows</text>		</g>
		<g id="shape7-4" v:mID="7" v:groupContext="shape" transform="translate(181.26,-342.047)">
			<title>Ellipse.7</title>
			<desc>Problem awareness</desc>
			<v:userDefs>
				<v:ud v:nameU="visVersion" v:val="VT0(15):26"/>
			</v:userDefs>
			<v:textBlock v:margins="rect(4,4,4,4)" v:tabSpace="42.5197"/>
			<v:textRect cx="48.189" cy="563.15" width="84.34" height="56.2205"/>
			<path d="M0 563.15 A48.189 32.126 0 0 1 96.38 563.15 A48.189 32.126 0 1 1 0 563.15 Z" class="st1"/>
			<text x="27.53" y="559.55" class="st2" v:langID="1033"><v:paragraph v:horizAlign="1"/><v:tabList/>Problem <tspan
						x="22.24" dy="1.2em" class="st3">awareness</tspan></text>		</g>
		<g id="shape9-8" v:mID="9" v:groupContext="shape" v:layerMember="0" transform="translate(141.732,-367.087)">
			<title>Dynamic connector.9</title>
			<path d="M0 588.19 L33.49 588.19" class="st4"/>
		</g>
		<g id="shape17-14" v:mID="17" v:groupContext="shape" transform="translate(28.3465,-331.654)">
			<title>Rectangle.17</title>
			<desc>Process steps</desc>
			<v:userDefs>
				<v:ud v:nameU="visVersion" v:val="VT0(15):26"/>
			</v:userDefs>
			<v:textBlock v:margins="rect(4,4,4,4)" v:tabSpace="42.5197"/>
			<v:textRect cx="56.6929" cy="552.756" width="113.39" height="85.0394"/>
			<rect x="0" y="510.236" width="113.386" height="85.0394" class="st1"/>
			<text x="23.92" y="556.36" class="st2" v:langID="1033"><v:paragraph v:horizAlign="1"/><v:tabList/>Process steps</text>		</g>
		<g id="shape18-17" v:mID="18" v:groupContext="shape" transform="translate(28.3465,-189.921)">
			<title>Rectangle.18</title>
			<desc>Outputs</desc>
			<v:userDefs>
				<v:ud v:nameU="visVersion" v:val="VT0(15):26"/>
			</v:userDefs>
			<v:textBlock v:margins="rect(4,4,4,4)" v:tabSpace="42.5197"/>
			<v:textRect cx="56.6929" cy="552.756" width="113.39" height="85.0394"/>
			<rect x="0" y="510.236" width="113.386" height="85.0394" class="st1"/>
			<text x="36.9" y="556.36" class="st2" v:langID="1033"><v:paragraph v:horizAlign="1"/><v:tabList/>Outputs</text>		</g>
		<g id="shape19-20" v:mID="19" v:groupContext="shape" transform="translate(317.165,-342.047)">
			<title>Ellipse.19</title>
			<desc>Suggestion</desc>
			<v:userDefs>
				<v:ud v:nameU="visVersion" v:val="VT0(15):26"/>
			</v:userDefs>
			<v:textBlock v:margins="rect(4,4,4,4)" v:tabSpace="42.5197"/>
			<v:textRect cx="48.189" cy="563.15" width="84.34" height="56.2205"/>
			<path d="M0 563.15 A48.189 32.126 0 0 1 96.38 563.15 A48.189 32.126 0 1 1 0 563.15 Z" class="st1"/>
			<text x="21.6" y="566.75" class="st2" v:langID="1033"><v:paragraph v:horizAlign="1"/><v:tabList/>Suggestion</text>		</g>
		<g id="shape20-23" v:mID="20" v:groupContext="shape" transform="translate(453.071,-342.047)">
			<title>Ellipse.20</title>
			<desc>Development</desc>
			<v:userDefs>
				<v:ud v:nameU="visVersion" v:val="VT0(15):26"/>
			</v:userDefs>
			<v:textBlock v:margins="rect(4,4,4,4)" v:tabSpace="42.5197"/>
			<v:textRect cx="48.189" cy="563.15" width="84.34" height="56.2205"/>
			<path d="M0 563.15 A48.189 32.126 0 0 1 96.38 563.15 A48.189 32.126 0 1 1 0 563.15 Z" class="st1"/>
			<text x="15.18" y="566.75" class="st2" v:langID="1033"><v:paragraph v:horizAlign="1"/><v:tabList/>Development</text>		</g>
		<g id="shape21-26" v:mID="21" v:groupContext="shape" transform="translate(588.976,-342.047)">
			<title>Ellipse.21</title>
			<desc>Evaluation</desc>
			<v:userDefs>
				<v:ud v:nameU="visVersion" v:val="VT0(15):26"/>
			</v:userDefs>
			<v:textBlock v:margins="rect(4,4,4,4)" v:tabSpace="42.5197"/>
			<v:textRect cx="48.189" cy="563.15" width="84.34" height="56.2205"/>
			<path d="M0 563.15 A48.189 32.126 0 0 1 96.38 563.15 A48.189 32.126 0 1 1 0 563.15 Z" class="st1"/>
			<text x="22.57" y="566.75" class="st2" v:langID="1033"><v:paragraph v:horizAlign="1"/><v:tabList/>Evaluation</text>		</g>
		<g id="shape22-29" v:mID="22" v:groupContext="shape" transform="translate(724.882,-342.047)">
			<title>Ellipse.22</title>
			<desc>Conclusion</desc>
			<v:userDefs>
				<v:ud v:nameU="visVersion" v:val="VT0(15):26"/>
			</v:userDefs>
			<v:textBlock v:margins="rect(4,4,4,4)" v:tabSpace="42.5197"/>
			<v:textRect cx="48.189" cy="563.15" width="84.34" height="56.2205"/>
			<path d="M0 563.15 A48.189 32.126 0 0 1 96.38 563.15 A48.189 32.126 0 1 1 0 563.15 Z" class="st1"/>
			<text x="21.57" y="566.75" class="st2" v:langID="1033"><v:paragraph v:horizAlign="1"/><v:tabList/>Conclusion</text>		</g>
		<g id="shape23-32" v:mID="23" v:groupContext="shape" v:layerMember="0" transform="translate(277.638,-367.087)">
			<title>Dynamic connector.23</title>
			<path d="M0 588.19 L33.49 588.19" class="st4"/>
		</g>
		<g id="shape24-37" v:mID="24" v:groupContext="shape" v:layerMember="0" transform="translate(413.543,-367.087)">
			<title>Dynamic connector.24</title>
			<path d="M0 588.19 L33.49 588.19" class="st4"/>
		</g>
		<g id="shape25-42" v:mID="25" v:groupContext="shape" v:layerMember="0" transform="translate(549.449,-367.087)">
			<title>Dynamic connector.25</title>
			<path d="M0 588.19 L33.49 588.19" class="st4"/>
		</g>
		<g id="shape26-47" v:mID="26" v:groupContext="shape" v:layerMember="0" transform="translate(685.354,-367.087)">
			<title>Dynamic connector.26</title>
			<path d="M0 588.19 L33.49 588.19" class="st4"/>
		</g>
		<g id="shape27-52" v:mID="27" v:groupContext="shape" transform="translate(246.614,-483.78)">
			<title>Ellipse.27</title>
			<desc>Knowledge contribution</desc>
			<v:userDefs>
				<v:ud v:nameU="visVersion" v:val="VT0(15):26"/>
			</v:userDefs>
			<v:textBlock v:margins="rect(4,4,4,4)" v:tabSpace="42.5197"/>
			<v:textRect cx="48.189" cy="563.15" width="84.34" height="56.2205"/>
			<path d="M0 563.15 A48.189 32.126 0 0 1 96.38 563.15 A48.189 32.126 0 1 1 0 563.15 Z" class="st1"/>
			<text x="21.14" y="559.55" class="st2" v:langID="1033"><v:paragraph v:horizAlign="1"/><v:tabList/>Knowledge <tspan
						x="17.85" dy="1.2em" class="st3">contribution</tspan></text>		</g>
		<g id="shape29-56" v:mID="29" v:groupContext="shape" transform="translate(181.26,-222.441)">
			<title>Sheet.29</title>
			<desc>Proposal Tentative design</desc>
			<v:textBlock v:margins="rect(4,4,4,4)" v:tabSpace="42.5197"/>
			<v:textRect cx="116.299" cy="585.276" width="232.6" height="20"/>
			<path d="M0 595.28 L232.6 595.28 L232.6 575.28 L0 575.28 L0 595.28 Z" class="st6"/>
			<text x="18.18" y="588.88" class="st2" v:langID="1033"><v:paragraph v:horizAlign="1"/><v:tabList/>Proposal                           Tentative design</text>		</g>
		<g id="shape33-59" v:mID="33" v:groupContext="shape" v:layerMember="0" transform="translate(501.26,-406.299)">
			<title>Dynamic connector.33</title>
			<path d="M0 595.28 L0 519.69 L-143.72 519.69" class="st4"/>
		</g>
		<g id="shape34-64" v:mID="34" v:groupContext="shape" v:layerMember="0" transform="translate(637.165,-406.299)">
			<title>Dynamic connector.34</title>
			<path d="M0 595.28 L0 519.69 L-135.91 519.69" class="st7"/>
		</g>
		<g id="shape35-67" v:mID="35" v:groupContext="shape" v:layerMember="0" transform="translate(773.071,-406.299)">
			<title>Dynamic connector.35</title>
			<path d="M0 595.28 L0 485.67 L-81.68 485.67" class="st4"/>
		</g>
		<g id="shape55-72" v:mID="55" v:groupContext="shape" transform="translate(588.976,-505.906)">
			<title>Sheet.55</title>
			<desc>Design science knowledge</desc>
			<v:textBlock v:margins="rect(4,4,4,4)" v:tabSpace="42.5197"/>
			<v:textRect cx="48.189" cy="585.276" width="96.38" height="20"/>
			<rect x="0" y="575.276" width="96.378" height="20" class="st8"/>
			<text x="12.53" y="581.68" class="st2" v:langID="1033"><v:paragraph v:horizAlign="1"/><v:tabList/>Design science <tspan
						x="21.53" dy="1.2em" class="st3">knowledge</tspan></text>		</g>
		<g id="shape56-76" v:mID="56" v:groupContext="shape" v:layerMember="0" transform="translate(637.087,-538.583)">
			<title>Dynamic connector.56</title>
			<path d="M0 588.19 L-279.55 588.19" class="st4"/>
		</g>
		<g id="shape57-81" v:mID="57" v:groupContext="shape" transform="translate(453.071,-222.441)">
			<title>Sheet.57</title>
			<desc>Artifact</desc>
			<v:textBlock v:margins="rect(4,4,4,4)" v:tabSpace="42.5197"/>
			<v:textRect cx="48.189" cy="585.276" width="96.38" height="20"/>
			<rect x="0" y="575.276" width="96.378" height="20" class="st8"/>
			<text x="29.99" y="588.88" class="st2" v:langID="1033"><v:paragraph v:horizAlign="1"/><v:tabList/>Artifact</text>		</g>
		<g id="shape58-84" v:mID="58" v:groupContext="shape" transform="translate(588.661,-222.441)">
			<title>Sheet.58</title>
			<desc>Performance measurement</desc>
			<v:textBlock v:margins="rect(4,4,4,4)" v:tabSpace="42.5197"/>
			<v:textRect cx="48.189" cy="585.276" width="96.38" height="20"/>
			<rect x="0" y="575.276" width="96.378" height="20" class="st8"/>
			<text x="16.58" y="581.68" class="st2" v:langID="1033"><v:paragraph v:horizAlign="1"/><v:tabList/>Performance <tspan
						x="14.02" dy="1.2em" class="st3">measurement</tspan></text>		</g>
		<g id="shape59-88" v:mID="59" v:groupContext="shape" transform="translate(724.882,-222.441)">
			<title>Sheet.59</title>
			<desc>Results</desc>
			<v:textBlock v:margins="rect(4,4,4,4)" v:tabSpace="42.5197"/>
			<v:textRect cx="48.189" cy="585.276" width="96.38" height="20"/>
			<rect x="0" y="575.276" width="96.378" height="20" class="st8"/>
			<text x="30.71" y="588.88" class="st2" v:langID="1033"><v:paragraph v:horizAlign="1"/><v:tabList/>Results</text>		</g>
	</g>
</svg>
